<svg id="Layer_1" data-name="Layer 1" xmlns="http://www.w3.org/2000/svg" viewBox="0 0 69.29 430"><defs><style>.cls-1{fill:#231f20;}</style></defs><title>Enrol</title><path class="cls-1" d="M70.09,89.9H24.52v-70H69.06c0.39,4.48-.41,9.29-0.65,13.94H41.83V48.67h22.3c0.33,3.72-.34,7.72-0.54,11.58H41.83V75.71H70.75C71.15,80.28,70.33,85.17,70.09,89.9Z" transform="translate(-13.04 -19.9)"/><path class="cls-1" d="M78.73,109.46v70.34l-11.9.47L31.61,136.13v43.67a70.38,70.38,0,0,1-15,.29V109.78c5.21,0,9.77-.16,12.46-0.42l34.65,42.9v-25.6h0V109.77C71.34,109.77,76.76,109.59,78.73,109.46Z" transform="translate(-13.04 -19.9)"/><path class="cls-1" d="M41.21,242.1a71.3,71.3,0,0,1-7.65-.49v28a84.12,84.12,0,0,1-17.32.31V201.3a112.78,112.78,0,0,1,23.18-2.4c21.17,0,33,6.28,33,19.49,0,9.08-5.51,16.74-15.27,20.18l21.94,31.06-21.37,1.09ZM33.07,230a33,33,0,0,0,7.08.78c9.38,0,15-3.95,15-10.24,0-6.11-5.34-8.33-13.81-8.33a55,55,0,0,0-8.27.63V230Z" transform="translate(-13.04 -19.9)"/><path class="cls-1" d="M13,327.08c0-21.75,15.7-38.67,36.65-38.67,18.9,0,32.63,13.59,32.63,33.76,0,21.69-15.87,39-37.09,39C26.34,361.12,13,347.18,13,327.08Zm34.55,19c10.54,0,17.33-9.53,17.33-21.21,0-11.15-6.15-21.42-17.19-21.37-10.54,0-17.28,9.53-17.27,21.23,0,11.31,6.31,21.36,17.13,21.36h0Z" transform="translate(-13.04 -19.9)"/><path class="cls-1" d="M69.62,449.9H24.95v-70c8.76,0,15-.21,17.32-0.36v55.4h28C70.73,439.75,69.88,444.92,69.62,449.9Z" transform="translate(-13.04 -19.9)"/></svg>