<?xml version="1.0" encoding="utf-8"?>
<!-- Generator: Adobe Illustrator 18.0.0, SVG Export Plug-In . SVG Version: 6.00 Build 0)  -->
<!DOCTYPE svg PUBLIC "-//W3C//DTD SVG 1.1//EN" "http://www.w3.org/Graphics/SVG/1.1/DTD/svg11.dtd">
<svg version="1.1" id="Layer_1" xmlns="http://www.w3.org/2000/svg" xmlns:xlink="http://www.w3.org/1999/xlink" x="0px" y="0px"
	 viewBox="0 0 450 90" enable-background="new 0 0 450 90" xml:space="preserve">
<g>
	<g>
		<path fill="#414042" d="M215.7,15.2h35.7V26h-22.4v13.3h20.9v10.7h-20.9v23.5h-13.2V15.2z"/>
		<path fill="#414042" d="M314.7,43.8c0,19.1-11.6,30.7-28.6,30.7c-17.3,0-27.4-13.1-27.4-29.7c0-17.5,11.2-30.5,28.4-30.5
			C304.9,14.3,314.7,27.7,314.7,43.8z M272.5,44.6c0,11.4,5.4,19.5,14.2,19.5c8.9,0,14-8.5,14-19.8c0-10.5-5-19.5-14.1-19.5
			C277.7,24.8,272.5,33.2,272.5,44.6z"/>
		<path fill="#414042" d="M376.7,43.8c0,19.1-11.6,30.7-28.6,30.7c-17.3,0-27.4-13.1-27.4-29.7c0-17.5,11.2-30.5,28.4-30.5
			C366.9,14.3,376.7,27.7,376.7,43.8z M334.6,44.6c0,11.4,5.4,19.5,14.2,19.5c8.9,0,14-8.5,14-19.8c0-10.5-5-19.5-14.1-19.5
			C339.8,24.8,334.6,33.2,334.6,44.6z"/>
		<path fill="#414042" d="M385.4,16c4.8-0.8,11.2-1.2,17.8-1.2c11.1,0,18.3,2,23.9,6.2c6.1,4.5,9.9,11.7,9.9,22
			c0,11.2-4.1,18.9-9.7,23.6c-6.1,5.1-15.5,7.5-26.9,7.5c-6.8,0-11.7-0.4-15-0.9V16z M398.6,63.6c1.1,0.3,2.9,0.3,4.6,0.3
			c11.9,0.1,19.7-6.5,19.7-20.4c0.1-12.1-7-18.5-18.3-18.5c-2.9,0-4.8,0.3-6,0.5V63.6z"/>
	</g>
	<line fill="#414042" stroke="#414042" stroke-width="3.6565" stroke-miterlimit="10" x1="190.1" y1="12.1" x2="190.1" y2="77.8"/>
	<g>
		<path fill="#414042" d="M65.2,41.6V20.3h3l6.8,10.8c1.6,2.5,2.8,4.8,3.8,6.9l0.1,0c-0.3-2.9-0.3-5.5-0.3-8.8v-8.9h2.6v21.4h-2.8
			l-6.8-10.8c-1.5-2.4-2.9-4.8-4-7.1l-0.1,0c0.2,2.7,0.2,5.3,0.2,8.8v9.1H65.2z"/>
		<path fill="#414042" d="M99.8,33.8c0,5.7-3.9,8.1-7.6,8.1c-4.2,0-7.4-3-7.4-7.9c0-5.1,3.4-8.1,7.6-8.1
			C96.9,26,99.8,29.2,99.8,33.8z M87.7,34c0,3.4,1.9,5.9,4.7,5.9c2.7,0,4.7-2.5,4.7-6c0-2.6-1.3-5.9-4.6-5.9S87.7,31.1,87.7,34z"/>
		<path fill="#414042" d="M116.2,37.5c0,1.6,0,3,0.1,4.2h-2.5l-0.2-2.5h-0.1c-0.7,1.2-2.3,2.9-5.1,2.9c-2.4,0-5.3-1.3-5.3-6.7v-9
			h2.8v8.5c0,2.9,0.9,4.9,3.4,4.9c1.9,0,3.2-1.3,3.7-2.5c0.2-0.4,0.3-0.9,0.3-1.4v-9.4h2.8V37.5z"/>
		<path fill="#414042" d="M120.8,31.1c0-1.8,0-3.4-0.1-4.8h2.4l0.1,3h0.1c0.7-2.1,2.4-3.4,4.2-3.4c0.3,0,0.5,0,0.8,0.1v2.6
			c-0.3-0.1-0.6-0.1-1-0.1c-2,0-3.4,1.5-3.7,3.6c-0.1,0.4-0.1,0.8-0.1,1.3v8.2h-2.8V31.1z"/>
		<path fill="#414042" d="M134.4,22c0,1-0.7,1.7-1.8,1.7c-1,0-1.7-0.8-1.7-1.7c0-1,0.7-1.7,1.7-1.7C133.8,20.2,134.4,21,134.4,22z
			 M131.3,41.6V26.3h2.8v15.3H131.3z"/>
		<path fill="#414042" d="M138.3,38.8c0.8,0.5,2.3,1.1,3.7,1.1c2,0,3-1,3-2.3c0-1.3-0.8-2.1-2.9-2.8c-2.8-1-4.1-2.5-4.1-4.3
			c0-2.5,2-4.5,5.3-4.5c1.6,0,2.9,0.4,3.8,1l-0.7,2c-0.6-0.4-1.7-0.9-3.1-0.9c-1.6,0-2.6,1-2.6,2.1c0,1.3,0.9,1.8,2.9,2.6
			c2.7,1,4,2.3,4,4.6c0,2.7-2.1,4.6-5.7,4.6c-1.7,0-3.2-0.4-4.3-1L138.3,38.8z"/>
		<path fill="#414042" d="M151.3,19.1h2.8v9.6h0.1c0.4-0.8,1.1-1.5,2-2c0.8-0.5,1.8-0.8,2.9-0.8c2.1,0,5.4,1.3,5.4,6.6v9.1h-2.8
			v-8.8c0-2.5-0.9-4.6-3.5-4.6c-1.8,0-3.2,1.3-3.7,2.8c-0.2,0.4-0.2,0.8-0.2,1.3v9.3h-2.8V19.1z"/>
		<path fill="#414042" d="M35.1,54.3l3.4,9.1c0.3,1,0.7,2.2,1,3.1h0.1c0.3-0.9,0.6-2.1,1-3.2l3-9h2.9l-4.2,10.9
			c-2,5.3-3.4,8-5.3,9.6c-1.4,1.2-2.7,1.7-3.4,1.8l-0.7-2.3c0.7-0.2,1.6-0.7,2.4-1.4c0.8-0.6,1.7-1.7,2.3-3.1
			c0.1-0.3,0.2-0.5,0.2-0.7s-0.1-0.4-0.2-0.7l-5.7-14.1H35.1z"/>
		<path fill="#414042" d="M62.6,61.9c0,5.7-3.9,8.1-7.6,8.1c-4.2,0-7.4-3-7.4-7.9c0-5.1,3.4-8.1,7.6-8.1
			C59.6,54,62.6,57.2,62.6,61.9z M50.4,62c0,3.4,1.9,5.9,4.7,5.9c2.7,0,4.7-2.5,4.7-6c0-2.6-1.3-5.9-4.6-5.9S50.4,59.1,50.4,62z"/>
		<path fill="#414042" d="M78.9,65.5c0,1.6,0,3,0.1,4.2h-2.5l-0.2-2.5h-0.1C75.6,68.4,74,70,71.3,70c-2.4,0-5.3-1.3-5.3-6.7v-9h2.8
			v8.5c0,2.9,0.9,4.9,3.4,4.9c1.9,0,3.2-1.3,3.7-2.5c0.2-0.4,0.3-0.9,0.3-1.4v-9.4h2.8V65.5z"/>
		<path fill="#414042" d="M83.6,59.1c0-1.8,0-3.4-0.1-4.8h2.4l0.1,3h0.1c0.7-2.1,2.4-3.4,4.2-3.4c0.3,0,0.5,0,0.8,0.1v2.6
			c-0.3-0.1-0.6-0.1-1-0.1c-2,0-3.4,1.5-3.7,3.6c-0.1,0.4-0.1,0.8-0.1,1.3v8.2h-2.8V59.1z"/>
		<path fill="#414042" d="M100.5,69.7c0.1-1,0.1-2.6,0.1-4V47.2h2.8v9.6h0.1c1-1.7,2.8-2.8,5.2-2.8c3.8,0,6.5,3.2,6.5,7.8
			c0,5.5-3.5,8.2-6.9,8.2c-2.2,0-4-0.9-5.1-2.9H103l-0.1,2.5H100.5z M103.4,63.5c0,0.3,0.1,0.7,0.1,1c0.5,1.9,2.2,3.3,4.2,3.3
			c2.9,0,4.7-2.4,4.7-5.9c0-3.1-1.6-5.7-4.6-5.7c-1.9,0-3.7,1.3-4.2,3.4c-0.1,0.3-0.2,0.7-0.2,1.1V63.5z"/>
		<path fill="#414042" d="M132.5,61.9c0,5.7-3.9,8.1-7.6,8.1c-4.2,0-7.4-3-7.4-7.9c0-5.1,3.4-8.1,7.6-8.1
			C129.6,54,132.5,57.2,132.5,61.9z M120.4,62c0,3.4,1.9,5.9,4.7,5.9c2.7,0,4.7-2.5,4.7-6c0-2.6-1.3-5.9-4.6-5.9
			S120.4,59.1,120.4,62z"/>
		<path fill="#414042" d="M149.3,47.2v18.5c0,1.4,0,2.9,0.1,4h-2.5l-0.1-2.7h-0.1c-0.9,1.7-2.7,3-5.2,3c-3.7,0-6.6-3.1-6.6-7.8
			c0-5.1,3.1-8.2,6.9-8.2c2.3,0,3.9,1.1,4.6,2.3h0.1v-9.2H149.3z M146.5,60.6c0-0.3,0-0.8-0.1-1.2c-0.4-1.8-1.9-3.2-4-3.2
			c-2.9,0-4.6,2.5-4.6,5.9c0,3.1,1.5,5.7,4.5,5.7c1.9,0,3.6-1.2,4.1-3.3c0.1-0.4,0.1-0.8,0.1-1.2V60.6z"/>
		<path fill="#414042" d="M155,54.3l3.4,9.1c0.3,1,0.7,2.2,1,3.1h0.1c0.3-0.9,0.6-2.1,1-3.2l3-9h2.9l-4.2,10.9c-2,5.3-3.4,8-5.3,9.6
			c-1.4,1.2-2.7,1.7-3.4,1.8l-0.7-2.3c0.7-0.2,1.6-0.7,2.4-1.4c0.8-0.6,1.7-1.7,2.3-3.1c0.1-0.3,0.2-0.5,0.2-0.7s-0.1-0.4-0.2-0.7
			l-5.7-14.1H155z"/>
	</g>
</g>
</svg>
