<?xml version="1.0" encoding="utf-8"?>
<!-- Generator: Adobe Illustrator 18.0.0, SVG Export Plug-In . SVG Version: 6.00 Build 0)  -->
<!DOCTYPE svg PUBLIC "-//W3C//DTD SVG 1.1//EN" "http://www.w3.org/Graphics/SVG/1.1/DTD/svg11.dtd">
<svg version="1.1" id="Layer_1" xmlns="http://www.w3.org/2000/svg" xmlns:xlink="http://www.w3.org/1999/xlink" x="0px" y="0px"
	 viewBox="0 0 365.2 153" enable-background="new 0 0 365.2 153" xml:space="preserve">
<path fill="#414042" d="M32.3,46.6c1.9,1,4.9,2,8,2c3.3,0,5-1.4,5-3.4c0-2-1.5-3.1-5.3-4.5c-5.3-1.8-8.7-4.8-8.7-9.4
	c0-5.4,4.5-9.6,12-9.6c3.6,0,6.2,0.8,8.1,1.6l-1.6,5.8c-1.3-0.6-3.5-1.5-6.6-1.5c-3.1,0-4.6,1.4-4.6,3.1c0,2,1.8,2.9,5.9,4.5
	c5.6,2.1,8.2,5,8.2,9.5c0,5.3-4.1,9.8-12.8,9.8c-3.6,0-7.2-0.9-9-1.9L32.3,46.6z"/>
<path fill="#414042" d="M64.9,45.8l-2.3,8.1h-7.4l9.7-31.7h9.4l9.8,31.7h-7.7L74,45.8H64.9z M72.9,40.4l-2-6.7
	c-0.6-1.9-1.1-4.2-1.6-6.1h-0.1c-0.5,1.9-0.9,4.3-1.5,6.1l-1.9,6.7H72.9z"/>
<path fill="#414042" d="M91.2,53.9V41l-10-18.7h8.2l3.2,7.6c1,2.3,1.6,4,2.4,6.1h0.1c0.7-2,1.5-3.8,2.4-6.1l3.2-7.6h8L98.4,40.7
	v13.2H91.2z"/>
<path fill="#414042" d="M119.4,22.2v18.3c0,5.5,2.1,8.2,5.7,8.2c3.8,0,5.8-2.6,5.8-8.2V22.2h7.2V40c0,9.8-4.9,14.4-13.2,14.4
	c-8,0-12.7-4.4-12.7-14.5V22.2H119.4z"/>
<path fill="#414042" d="M144.4,22.2h7.2v25.7h12.6v6h-19.8V22.2z"/>
<path fill="#414042" d="M175.6,22.2v31.7h-7.2V22.2H175.6z"/>
<path fill="#414042" d="M187.9,28.3h-8.5v-6h24.4v6h-8.7v25.7h-7.2V28.3z"/>
<path fill="#414042" d="M211.6,45.8l-2.3,8.1h-7.4l9.7-31.7h9.4l9.8,31.7h-7.7l-2.4-8.1H211.6z M219.6,40.4l-2-6.7
	c-0.6-1.9-1.1-4.2-1.6-6.1H216c-0.5,1.9-0.9,4.3-1.5,6.1l-1.9,6.7H219.6z"/>
<path fill="#414042" d="M86.2,110.3c-0.3-7.3-0.5-16.2-0.5-25h-0.3c-1.9,7.8-4.4,16.5-6.8,23.6l-7.4,23.8H60.4L53.9,109
	c-2-7.1-4.1-15.8-5.5-23.8h-0.2c-0.4,8.2-0.6,17.6-1.1,25.2l-1.1,23.1H33.3l3.9-60.9h18.4l6,20.3c1.9,7.1,3.8,14.6,5.2,21.8h0.3
	c1.7-7.1,3.8-15.1,5.8-21.9l6.5-20.2h18l3.3,60.9H87.1L86.2,110.3z"/>
<path fill="#414042" d="M147.4,107.8H125v14.5h25v11.3h-38.9V72.7h37.6V84H125v12.7h22.4V107.8z"/>
<path fill="#414042" d="M191.5,133.6l-5.5-11c-2.3-4.2-3.7-7.4-5.4-10.9h-0.2c-1.3,3.5-2.8,6.7-4.7,10.9l-5.1,11h-15.7l17.6-30.8
	l-17-30.1h15.8l5.3,11.1c1.8,3.7,3.2,6.7,4.6,10.1h0.2c1.4-3.9,2.6-6.6,4.2-10.1l5.2-11.1h15.7l-17.2,29.7l18.1,31.2H191.5z"/>
<path fill="#414042" d="M228.6,72.7v60.9h-13.8V72.7H228.6z"/>
<path fill="#414042" d="M285.3,131.9c-2.5,1.3-8.2,2.6-15.6,2.6c-21.1,0-31.9-13.1-31.9-30.5c0-20.8,14.8-32.4,33.3-32.4
	c7.1,0,12.6,1.4,15,2.7l-2.8,10.9c-2.8-1.2-6.7-2.3-11.6-2.3c-10.9,0-19.4,6.6-19.4,20.2c0,12.2,7.2,19.9,19.5,19.9
	c4.2,0,8.8-0.9,11.5-2L285.3,131.9z"/>
<path fill="#414042" d="M347.4,102.5c0,20-12.1,32.1-29.9,32.1c-18.1,0-28.7-13.6-28.7-31c0-18.3,11.7-31.9,29.7-31.9
	C337.2,71.7,347.4,85.7,347.4,102.5z M303.4,103.3c0,11.9,5.6,20.3,14.8,20.3c9.3,0,14.6-8.9,14.6-20.7c0-10.9-5.2-20.3-14.7-20.3
	C308.8,82.6,303.4,91.5,303.4,103.3z"/>
<line fill="#414042" stroke="#414042" stroke-width="4.8096" stroke-miterlimit="10" x1="14.2" y1="22" x2="14.2" y2="135.7"/>
</svg>
