<?xml version="1.0" encoding="utf-8"?>
<!-- Generator: Adobe Illustrator 18.0.0, SVG Export Plug-In . SVG Version: 6.00 Build 0)  -->
<!DOCTYPE svg PUBLIC "-//W3C//DTD SVG 1.1//EN" "http://www.w3.org/Graphics/SVG/1.1/DTD/svg11.dtd">
<svg version="1.1" id="Layer_1" xmlns="http://www.w3.org/2000/svg" xmlns:xlink="http://www.w3.org/1999/xlink" x="0px" y="0px"
	 viewBox="0 0 365.2 128" enable-background="new 0 0 365.2 128" xml:space="preserve">
<g>
	<g>
		<path fill="#414042" d="M22.4-560.6v-23.9L3.9-618.9H19l6,14c1.8,4.2,3,7.4,4.5,11.2h0.2c1.3-3.6,2.7-7,4.4-11.2l5.9-14h14.8
			l-19.2,34v24.3H22.4z"/>
		<path fill="#414042" d="M110.4-590.3c0,19.1-11.6,30.7-28.6,30.7c-17.3,0-27.4-13.1-27.4-29.7c0-17.5,11.2-30.5,28.4-30.5
			C100.6-619.8,110.4-606.4,110.4-590.3z M68.2-589.5c0,11.4,5.4,19.5,14.2,19.5c8.9,0,14-8.5,14-19.8c0-10.5-5-19.5-14.1-19.5
			C73.4-609.4,68.2-600.9,68.2-589.5z"/>
		<path fill="#414042" d="M167.7-563.2c-4.1,1.4-11.8,3.3-19.5,3.3c-10.6,0-18.3-2.7-23.7-7.9c-5.4-5-8.3-12.6-8.2-21.2
			c0.1-19.4,14.2-30.5,33.3-30.5c7.5,0,13.3,1.5,16.2,2.9l-2.8,10.6c-3.2-1.4-7.2-2.5-13.6-2.5c-11,0-19.3,6.2-19.3,18.9
			c0,12,7.5,19.1,18.3,19.1c3,0,5.5-0.3,6.5-0.9v-12.2h-9V-594h21.7V-563.2z"/>
		<path fill="#414042" d="M191.6-575.5l-4.2,15h-13.7l17.8-58.3h17.3l18.1,58.3h-14.2l-4.5-15H191.6z M206.4-585.4l-3.6-12.4
			c-1-3.5-2.1-7.8-2.9-11.2h-0.2c-0.9,3.5-1.7,7.9-2.7,11.2l-3.5,12.4H206.4z"/>
	</g>
	
		<line fill="#414042" stroke="#414042" stroke-width="3.6565" stroke-miterlimit="10" x1="246.2" y1="-622" x2="246.2" y2="-556.3"/>
	<g>
		<path fill="#414042" d="M268.5-613.5c1.4-0.3,3.4-0.4,5.3-0.4c2.9,0,4.8,0.5,6.2,1.7c1.1,1,1.7,2.4,1.7,4.1c0,2.8-1.8,4.7-4,5.5
			v0.1c1.6,0.6,2.6,2.1,3.1,4.3c0.7,3,1.2,5,1.6,5.9h-2.9c-0.3-0.6-0.8-2.4-1.4-5.1c-0.6-2.9-1.8-4.1-4.3-4.2h-2.6v9.3h-2.8V-613.5z
			 M271.2-603.8h2.8c2.9,0,4.8-1.6,4.8-4.1c0-2.8-2-4-4.9-4c-1.3,0-2.3,0.1-2.7,0.3V-603.8z"/>
		<path fill="#414042" d="M287.1-599.6c0.1,3.8,2.5,5.3,5.3,5.3c2,0,3.2-0.3,4.2-0.8l0.5,2c-1,0.4-2.7,1-5.1,1
			c-4.7,0-7.5-3.1-7.5-7.7s2.7-8.3,7.2-8.3c5,0,6.3,4.4,6.3,7.2c0,0.6-0.1,1-0.1,1.3H287.1z M295.3-601.6c0-1.8-0.7-4.5-3.9-4.5
			c-2.8,0-4.1,2.6-4.3,4.5H295.3z"/>
		<path fill="#414042" d="M301.7-592.5v-13.2h-2.2v-2.1h2.2v-0.7c0-2.2,0.5-4.1,1.8-5.4c1-1,2.4-1.4,3.7-1.4c1,0,1.8,0.2,2.4,0.4
			l-0.4,2.2c-0.4-0.2-1-0.3-1.8-0.3c-2.4,0-3,2.1-3,4.4v0.8h3.7v2.1h-3.7v13.2H301.7z"/>
		<path fill="#414042" d="M310.7-603c0-1.8,0-3.4-0.1-4.8h2.4l0.1,3h0.1c0.7-2.1,2.4-3.4,4.2-3.4c0.3,0,0.5,0,0.8,0.1v2.6
			c-0.3-0.1-0.6-0.1-1-0.1c-2,0-3.4,1.5-3.7,3.6c-0.1,0.4-0.1,0.8-0.1,1.3v8.2h-2.8V-603z"/>
		<path fill="#414042" d="M322.3-599.6c0.1,3.8,2.5,5.3,5.3,5.3c2,0,3.2-0.3,4.2-0.8l0.5,2c-1,0.4-2.7,1-5.1,1
			c-4.7,0-7.5-3.1-7.5-7.7s2.7-8.3,7.2-8.3c5,0,6.3,4.4,6.3,7.2c0,0.6-0.1,1-0.1,1.3H322.3z M330.4-601.6c0-1.8-0.7-4.5-3.9-4.5
			c-2.8,0-4.1,2.6-4.3,4.5H330.4z"/>
		<path fill="#414042" d="M336.2-595.3c0.8,0.5,2.3,1.1,3.7,1.1c2,0,3-1,3-2.3c0-1.3-0.8-2.1-2.9-2.8c-2.8-1-4.1-2.5-4.1-4.3
			c0-2.5,2-4.5,5.3-4.5c1.6,0,2.9,0.4,3.8,1l-0.7,2c-0.6-0.4-1.7-0.9-3.1-0.9c-1.6,0-2.6,1-2.6,2.1c0,1.3,0.9,1.8,2.9,2.6
			c2.7,1,4,2.3,4,4.6c0,2.7-2.1,4.6-5.7,4.6c-1.7,0-3.2-0.4-4.3-1L336.2-595.3z"/>
		<path fill="#414042" d="M349.1-615h2.8v9.6h0.1c0.4-0.8,1.1-1.5,2-2c0.8-0.5,1.8-0.8,2.9-0.8c2.1,0,5.4,1.3,5.4,6.6v9.1h-2.8v-8.8
			c0-2.5-0.9-4.6-3.5-4.6c-1.8,0-3.2,1.3-3.7,2.8c-0.2,0.4-0.2,0.8-0.2,1.3v9.3h-2.8V-615z"/>
		<path fill="#414042" d="M269.4-579.8l3.4,9.1c0.3,1,0.7,2.2,1,3.1h0.1c0.3-0.9,0.6-2.1,1-3.2l3-9h2.9l-4.2,10.9
			c-2,5.3-3.4,8-5.3,9.6c-1.4,1.2-2.7,1.7-3.4,1.8l-0.7-2.3c0.7-0.2,1.6-0.7,2.4-1.4c0.8-0.6,1.7-1.7,2.3-3.1
			c0.1-0.3,0.2-0.5,0.2-0.7c0-0.2-0.1-0.4-0.2-0.7l-5.7-14.1H269.4z"/>
		<path fill="#414042" d="M296.9-572.2c0,5.7-3.9,8.1-7.6,8.1c-4.2,0-7.4-3-7.4-7.9c0-5.1,3.4-8.1,7.6-8.1
			C293.9-580.1,296.9-576.9,296.9-572.2z M284.7-572.1c0,3.4,1.9,5.9,4.7,5.9c2.7,0,4.7-2.5,4.7-6c0-2.6-1.3-5.9-4.6-5.9
			S284.7-575,284.7-572.1z"/>
		<path fill="#414042" d="M313.2-568.6c0,1.6,0,3,0.1,4.2h-2.5l-0.2-2.5h-0.1c-0.7,1.2-2.3,2.9-5.1,2.9c-2.4,0-5.3-1.3-5.3-6.7v-9
			h2.8v8.5c0,2.9,0.9,4.9,3.4,4.9c1.9,0,3.2-1.3,3.7-2.5c0.2-0.4,0.3-0.9,0.3-1.4v-9.4h2.8V-568.6z"/>
		<path fill="#414042" d="M317.8-575c0-1.8,0-3.4-0.1-4.8h2.4l0.1,3h0.1c0.7-2.1,2.4-3.4,4.2-3.4c0.3,0,0.5,0,0.8,0.1v2.6
			c-0.3-0.1-0.6-0.1-1-0.1c-2,0-3.4,1.5-3.7,3.6c-0.1,0.4-0.1,0.8-0.1,1.3v8.2h-2.8V-575z"/>
		<path fill="#414042" d="M334.9-575.6c0-1.6,0-2.9-0.1-4.2h2.4l0.1,2.5h0.1c0.9-1.5,2.3-2.8,4.8-2.8c2.1,0,3.7,1.3,4.3,3.1h0.1
			c0.5-0.9,1.1-1.5,1.7-2c0.9-0.7,1.9-1.1,3.4-1.1c2,0,5,1.3,5,6.7v9h-2.7v-8.7c0-2.9-1.1-4.7-3.3-4.7c-1.6,0-2.8,1.2-3.3,2.5
			c-0.1,0.4-0.2,0.9-0.2,1.4v9.5h-2.7v-9.2c0-2.4-1.1-4.2-3.2-4.2c-1.7,0-3,1.4-3.5,2.8c-0.2,0.4-0.2,0.9-0.2,1.4v9.3h-2.7V-575.6z"
			/>
		<path fill="#414042" d="M364.4-584.1c0,1-0.7,1.7-1.8,1.7c-1,0-1.7-0.8-1.7-1.7c0-1,0.7-1.7,1.7-1.7
			C363.8-585.8,364.4-585.1,364.4-584.1z M361.3-564.4v-15.3h2.8v15.3H361.3z"/>
		<path fill="#414042" d="M368.8-575.6c0-1.6,0-2.9-0.1-4.2h2.5l0.2,2.5h0.1c0.8-1.5,2.5-2.9,5.1-2.9c2.1,0,5.4,1.3,5.4,6.5v9.2H379
			v-8.8c0-2.5-0.9-4.5-3.5-4.5c-1.8,0-3.3,1.3-3.7,2.9c-0.1,0.3-0.2,0.8-0.2,1.3v9.2h-2.8V-575.6z"/>
		<path fill="#414042" d="M399.6-586.9v18.5c0,1.4,0,2.9,0.1,4h-2.5l-0.1-2.7H397c-0.9,1.7-2.7,3-5.2,3c-3.7,0-6.6-3.1-6.6-7.8
			c0-5.1,3.1-8.2,6.9-8.2c2.3,0,3.9,1.1,4.6,2.3h0.1v-9.2H399.6z M396.8-573.5c0-0.3,0-0.8-0.1-1.2c-0.4-1.8-1.9-3.2-4-3.2
			c-2.9,0-4.6,2.5-4.6,5.9c0,3.1,1.5,5.7,4.5,5.7c1.9,0,3.6-1.2,4.1-3.3c0.1-0.4,0.1-0.8,0.1-1.2V-573.5z"/>
	</g>
</g>
<g>
	<g>
		<path fill="#414042" d="M207.8-423.3h35.7v10.8H221v13.3H242v10.7H221v23.5h-13.2V-423.3z"/>
		<path fill="#414042" d="M306.8-394.7c0,19.1-11.6,30.7-28.6,30.7c-17.3,0-27.4-13.1-27.4-29.7c0-17.5,11.2-30.5,28.4-30.5
			C297-424.2,306.8-410.8,306.8-394.7z M264.6-393.9c0,11.4,5.4,19.5,14.2,19.5c8.9,0,14-8.5,14-19.8c0-10.5-5-19.5-14.1-19.5
			C269.8-413.7,264.6-405.3,264.6-393.9z"/>
		<path fill="#414042" d="M368.8-394.7c0,19.1-11.6,30.7-28.6,30.7c-17.3,0-27.4-13.1-27.4-29.7c0-17.5,11.2-30.5,28.4-30.5
			C359-424.2,368.8-410.8,368.8-394.7z M326.7-393.9c0,11.4,5.4,19.5,14.2,19.5c8.9,0,14-8.5,14-19.8c0-10.5-5-19.5-14.1-19.5
			C331.9-413.7,326.7-405.3,326.7-393.9z"/>
		<path fill="#414042" d="M377.5-422.5c4.8-0.8,11.2-1.2,17.8-1.2c11.1,0,18.3,2,23.9,6.2c6.1,4.5,9.9,11.7,9.9,22
			c0,11.2-4.1,18.9-9.7,23.6c-6.1,5.1-15.5,7.5-26.9,7.5c-6.8,0-11.7-0.4-15-0.9V-422.5z M390.7-374.9c1.1,0.3,2.9,0.3,4.6,0.3
			c11.9,0.1,19.7-6.5,19.7-20.4c0.1-12.1-7-18.5-18.3-18.5c-2.9,0-4.8,0.3-6,0.5V-374.9z"/>
	</g>
	
		<line fill="#414042" stroke="#414042" stroke-width="3.6565" stroke-miterlimit="10" x1="182.2" y1="-426.4" x2="182.2" y2="-360.7"/>
	<g>
		<path fill="#414042" d="M57.3-396.9v-21.4h3l6.8,10.8c1.6,2.5,2.8,4.8,3.8,6.9l0.1,0c-0.3-2.9-0.3-5.5-0.3-8.8v-8.9h2.6v21.4h-2.8
			l-6.8-10.8c-1.5-2.4-2.9-4.8-4-7.1l-0.1,0c0.2,2.7,0.2,5.3,0.2,8.8v9.1H57.3z"/>
		<path fill="#414042" d="M92-404.7c0,5.7-3.9,8.1-7.6,8.1c-4.2,0-7.4-3-7.4-7.9c0-5.1,3.4-8.1,7.6-8.1C89-412.5,92-409.3,92-404.7z
			 M79.8-404.5c0,3.4,1.9,5.9,4.7,5.9c2.7,0,4.7-2.5,4.7-6c0-2.6-1.3-5.9-4.6-5.9S79.8-407.4,79.8-404.5z"/>
		<path fill="#414042" d="M108.3-401c0,1.6,0,3,0.1,4.2H106l-0.2-2.5h-0.1c-0.7,1.2-2.3,2.9-5.1,2.9c-2.4,0-5.3-1.3-5.3-6.7v-9h2.8
			v8.5c0,2.9,0.9,4.9,3.4,4.9c1.9,0,3.2-1.3,3.7-2.5c0.2-0.4,0.3-0.9,0.3-1.4v-9.4h2.8V-401z"/>
		<path fill="#414042" d="M112.9-407.4c0-1.8,0-3.4-0.1-4.8h2.4l0.1,3h0.1c0.7-2.1,2.4-3.4,4.2-3.4c0.3,0,0.5,0,0.8,0.1v2.6
			c-0.3-0.1-0.6-0.1-1-0.1c-2,0-3.4,1.5-3.7,3.6c-0.1,0.4-0.1,0.8-0.1,1.3v8.2h-2.8V-407.4z"/>
		<path fill="#414042" d="M126.5-416.5c0,1-0.7,1.7-1.8,1.7c-1,0-1.7-0.8-1.7-1.7c0-1,0.7-1.7,1.7-1.7
			C125.9-418.3,126.5-417.5,126.5-416.5z M123.4-396.9v-15.3h2.8v15.3H123.4z"/>
		<path fill="#414042" d="M130.5-399.7c0.8,0.5,2.3,1.1,3.7,1.1c2,0,3-1,3-2.3c0-1.3-0.8-2.1-2.9-2.8c-2.8-1-4.1-2.5-4.1-4.3
			c0-2.5,2-4.5,5.3-4.5c1.6,0,2.9,0.4,3.8,1l-0.7,2c-0.6-0.4-1.7-0.9-3.1-0.9c-1.6,0-2.6,1-2.6,2.1c0,1.3,0.9,1.8,2.9,2.6
			c2.7,1,4,2.3,4,4.6c0,2.7-2.1,4.6-5.7,4.6c-1.7,0-3.2-0.4-4.3-1L130.5-399.7z"/>
		<path fill="#414042" d="M143.4-419.4h2.8v9.6h0.1c0.4-0.8,1.1-1.5,2-2c0.8-0.5,1.8-0.8,2.9-0.8c2.1,0,5.4,1.3,5.4,6.6v9.1h-2.8
			v-8.8c0-2.5-0.9-4.6-3.5-4.6c-1.8,0-3.2,1.3-3.7,2.8c-0.2,0.4-0.2,0.8-0.2,1.3v9.3h-2.8V-419.4z"/>
		<path fill="#414042" d="M27.2-384.2l3.4,9.1c0.3,1,0.7,2.2,1,3.1h0.1c0.3-0.9,0.6-2.1,1-3.2l3-9h2.9l-4.2,10.9
			c-2,5.3-3.4,8-5.3,9.6c-1.4,1.2-2.7,1.7-3.4,1.8l-0.7-2.3c0.7-0.2,1.6-0.7,2.4-1.4c0.8-0.6,1.7-1.7,2.3-3.1
			c0.1-0.3,0.2-0.5,0.2-0.7s-0.1-0.4-0.2-0.7l-5.7-14.1H27.2z"/>
		<path fill="#414042" d="M54.7-376.6c0,5.7-3.9,8.1-7.6,8.1c-4.2,0-7.4-3-7.4-7.9c0-5.1,3.4-8.1,7.6-8.1
			C51.7-384.5,54.7-381.3,54.7-376.6z M42.5-376.5c0,3.4,1.9,5.9,4.7,5.9c2.7,0,4.7-2.5,4.7-6c0-2.6-1.3-5.9-4.6-5.9
			S42.5-379.4,42.5-376.5z"/>
		<path fill="#414042" d="M71-373c0,1.6,0,3,0.1,4.2h-2.5l-0.2-2.5h-0.1c-0.7,1.2-2.3,2.9-5.1,2.9c-2.4,0-5.3-1.3-5.3-6.7v-9h2.8
			v8.5c0,2.9,0.9,4.9,3.4,4.9c1.9,0,3.2-1.3,3.7-2.5c0.2-0.4,0.3-0.9,0.3-1.4v-9.4H71V-373z"/>
		<path fill="#414042" d="M75.7-379.4c0-1.8,0-3.4-0.1-4.8H78l0.1,3h0.1c0.7-2.1,2.4-3.4,4.2-3.4c0.3,0,0.5,0,0.8,0.1v2.6
			c-0.3-0.1-0.6-0.1-1-0.1c-2,0-3.4,1.5-3.7,3.6c-0.1,0.4-0.1,0.8-0.1,1.3v8.2h-2.8V-379.4z"/>
		<path fill="#414042" d="M92.6-368.8c0.1-1,0.1-2.6,0.1-4v-18.5h2.8v9.6h0.1c1-1.7,2.8-2.8,5.2-2.8c3.8,0,6.5,3.2,6.5,7.8
			c0,5.5-3.5,8.2-6.9,8.2c-2.2,0-4-0.9-5.1-2.9h-0.1l-0.1,2.5H92.6z M95.5-375c0,0.3,0.1,0.7,0.1,1c0.5,1.9,2.2,3.3,4.2,3.3
			c2.9,0,4.7-2.4,4.7-5.9c0-3.1-1.6-5.7-4.6-5.7c-1.9,0-3.7,1.3-4.2,3.4c-0.1,0.3-0.2,0.7-0.2,1.1V-375z"/>
		<path fill="#414042" d="M124.7-376.6c0,5.7-3.9,8.1-7.6,8.1c-4.2,0-7.4-3-7.4-7.9c0-5.1,3.4-8.1,7.6-8.1
			C121.7-384.5,124.7-381.3,124.7-376.6z M112.5-376.5c0,3.4,1.9,5.9,4.7,5.9c2.7,0,4.7-2.5,4.7-6c0-2.6-1.3-5.9-4.6-5.9
			S112.5-379.4,112.5-376.5z"/>
		<path fill="#414042" d="M141.4-391.3v18.5c0,1.4,0,2.9,0.1,4H139l-0.1-2.7h-0.1c-0.9,1.7-2.7,3-5.2,3c-3.7,0-6.6-3.1-6.6-7.8
			c0-5.1,3.1-8.2,6.9-8.2c2.3,0,3.9,1.1,4.6,2.3h0.1v-9.2H141.4z M138.6-377.9c0-0.3,0-0.8-0.1-1.2c-0.4-1.8-1.9-3.2-4-3.2
			c-2.9,0-4.6,2.5-4.6,5.9c0,3.1,1.5,5.7,4.5,5.7c1.9,0,3.6-1.2,4.1-3.3c0.1-0.4,0.1-0.8,0.1-1.2V-377.9z"/>
		<path fill="#414042" d="M147.1-384.2l3.4,9.1c0.3,1,0.7,2.2,1,3.1h0.1c0.3-0.9,0.6-2.1,1-3.2l3-9h2.9l-4.2,10.9
			c-2,5.3-3.4,8-5.3,9.6c-1.4,1.2-2.7,1.7-3.4,1.8l-0.7-2.3c0.7-0.2,1.6-0.7,2.4-1.4c0.8-0.6,1.7-1.7,2.3-3.1
			c0.1-0.3,0.2-0.5,0.2-0.7s-0.1-0.4-0.2-0.7l-5.7-14.1H147.1z"/>
	</g>
</g>
<g>
	<rect x="496.2" y="-647.8" fill="none" width="228.8" height="65.7"/>
	<text transform="matrix(1 0 0 1 496.1513 -586.3907)" fill="#414042" font-family="'MyriadPro-Bold'" font-size="86.5373">YOG</text>
	
		<line fill="#414042" stroke="#414042" stroke-width="3.6565" stroke-miterlimit="10" x1="739.2" y1="-647.8" x2="739.2" y2="-582.1"/>
	<rect x="759" y="-640.8" fill="none" width="165" height="51.7"/>
	<text transform="matrix(1 0 0 1 759.0497 -618.3038)"><tspan x="0" y="0" fill="#414042" font-family="'MyriadPro-Regular'" font-size="31.6897">Refresh</tspan><tspan x="0" y="28" fill="#414042" font-family="'MyriadPro-Regular'" font-size="31.6897">your mind</tspan></text>
</g>
<g>
	<g>
		<path fill="#414042" d="M749.7-412.3h35.7v10.8H763v13.3h20.9v10.7H763v23.5h-13.2V-412.3z"/>
		<path fill="#414042" d="M848.7-383.7c0,19.1-11.6,30.7-28.6,30.7c-17.3,0-27.4-13.1-27.4-29.7c0-17.5,11.2-30.5,28.4-30.5
			C838.9-413.2,848.7-399.8,848.7-383.7z M806.6-382.9c0,11.4,5.4,19.5,14.2,19.5c8.9,0,14-8.5,14-19.8c0-10.5-5-19.5-14.1-19.5
			C811.8-402.7,806.6-394.3,806.6-382.9z"/>
		<path fill="#414042" d="M910.8-383.7c0,19.1-11.6,30.7-28.6,30.7c-17.3,0-27.4-13.1-27.4-29.7c0-17.5,11.2-30.5,28.4-30.5
			C901-413.2,910.8-399.8,910.8-383.7z M868.6-382.9c0,11.4,5.4,19.5,14.2,19.5c8.9,0,14-8.5,14-19.8c0-10.5-5-19.5-14.1-19.5
			C873.8-402.7,868.6-394.3,868.6-382.9z"/>
		<path fill="#414042" d="M919.4-411.5c4.8-0.8,11.2-1.2,17.8-1.2c11.1,0,18.3,2,23.9,6.2c6.1,4.5,9.9,11.7,9.9,22
			c0,11.2-4.1,18.9-9.7,23.6c-6.1,5.1-15.5,7.5-26.9,7.5c-6.8,0-11.7-0.4-15-0.9V-411.5z M932.6-363.9c1.1,0.3,2.9,0.3,4.6,0.3
			c11.9,0.1,19.7-6.5,19.7-20.4c0.1-12.1-7-18.5-18.3-18.5c-2.9,0-4.8,0.3-6,0.5V-363.9z"/>
	</g>
	
		<line fill="#414042" stroke="#414042" stroke-width="3.6565" stroke-miterlimit="10" x1="724.1" y1="-415.4" x2="724.1" y2="-349.7"/>
	<g>
		<path fill="#414042" d="M599.3-385.9v-21.4h3l6.8,10.8c1.6,2.5,2.8,4.8,3.8,6.9l0.1,0c-0.3-2.9-0.3-5.5-0.3-8.8v-8.9h2.6v21.4
			h-2.8l-6.8-10.8c-1.5-2.4-2.9-4.8-4-7.1l-0.1,0c0.2,2.7,0.2,5.3,0.2,8.8v9.1H599.3z"/>
		<path fill="#414042" d="M633.9-393.7c0,5.7-3.9,8.1-7.6,8.1c-4.2,0-7.4-3-7.4-7.9c0-5.1,3.4-8.1,7.6-8.1
			C630.9-401.5,633.9-398.3,633.9-393.7z M621.7-393.5c0,3.4,1.9,5.9,4.7,5.9c2.7,0,4.7-2.5,4.7-6c0-2.6-1.3-5.9-4.6-5.9
			S621.7-396.4,621.7-393.5z"/>
		<path fill="#414042" d="M650.2-390c0,1.6,0,3,0.1,4.2h-2.5l-0.2-2.5h-0.1c-0.7,1.2-2.3,2.9-5.1,2.9c-2.4,0-5.3-1.3-5.3-6.7v-9h2.8
			v8.5c0,2.9,0.9,4.9,3.4,4.9c1.9,0,3.2-1.3,3.7-2.5c0.2-0.4,0.3-0.9,0.3-1.4v-9.4h2.8V-390z"/>
		<path fill="#414042" d="M654.9-396.4c0-1.8,0-3.4-0.1-4.8h2.4l0.1,3h0.1c0.7-2.1,2.4-3.4,4.2-3.4c0.3,0,0.5,0,0.8,0.1v2.6
			c-0.3-0.1-0.6-0.1-1-0.1c-2,0-3.4,1.5-3.7,3.6c-0.1,0.4-0.1,0.8-0.1,1.3v8.2h-2.8V-396.4z"/>
		<path fill="#414042" d="M668.5-405.5c0,1-0.7,1.7-1.8,1.7c-1,0-1.7-0.8-1.7-1.7c0-1,0.7-1.7,1.7-1.7
			C667.8-407.3,668.5-406.5,668.5-405.5z M665.4-385.9v-15.3h2.8v15.3H665.4z"/>
		<path fill="#414042" d="M672.4-388.7c0.8,0.5,2.3,1.1,3.7,1.1c2,0,3-1,3-2.3c0-1.3-0.8-2.1-2.9-2.8c-2.8-1-4.1-2.5-4.1-4.3
			c0-2.5,2-4.5,5.3-4.5c1.6,0,2.9,0.4,3.8,1l-0.7,2c-0.6-0.4-1.7-0.9-3.1-0.9c-1.6,0-2.6,1-2.6,2.1c0,1.3,0.9,1.8,2.9,2.6
			c2.7,1,4,2.3,4,4.6c0,2.7-2.1,4.6-5.7,4.6c-1.7,0-3.2-0.4-4.3-1L672.4-388.7z"/>
		<path fill="#414042" d="M685.3-408.4h2.8v9.6h0.1c0.4-0.8,1.1-1.5,2-2c0.8-0.5,1.8-0.8,2.9-0.8c2.1,0,5.4,1.3,5.4,6.6v9.1h-2.8
			v-8.8c0-2.5-0.9-4.6-3.5-4.6c-1.8,0-3.2,1.3-3.7,2.8c-0.2,0.4-0.2,0.8-0.2,1.3v9.3h-2.8V-408.4z"/>
		<path fill="#414042" d="M569.2-373.2l3.4,9.1c0.3,1,0.7,2.2,1,3.1h0.1c0.3-0.9,0.6-2.1,1-3.2l3-9h2.9l-4.2,10.9
			c-2,5.3-3.4,8-5.3,9.6c-1.4,1.2-2.7,1.7-3.4,1.8l-0.7-2.3c0.7-0.2,1.6-0.7,2.4-1.4c0.8-0.6,1.7-1.7,2.3-3.1
			c0.1-0.3,0.2-0.5,0.2-0.7s-0.1-0.4-0.2-0.7l-5.7-14.1H569.2z"/>
		<path fill="#414042" d="M596.6-365.6c0,5.7-3.9,8.1-7.6,8.1c-4.2,0-7.4-3-7.4-7.9c0-5.1,3.4-8.1,7.6-8.1
			C593.7-373.5,596.6-370.3,596.6-365.6z M584.5-365.5c0,3.4,1.9,5.9,4.7,5.9c2.7,0,4.7-2.5,4.7-6c0-2.6-1.3-5.9-4.6-5.9
			S584.5-368.4,584.5-365.5z"/>
		<path fill="#414042" d="M613-362c0,1.6,0,3,0.1,4.2h-2.5l-0.2-2.5h-0.1c-0.7,1.2-2.3,2.9-5.1,2.9c-2.4,0-5.3-1.3-5.3-6.7v-9h2.8
			v8.5c0,2.9,0.9,4.9,3.4,4.9c1.9,0,3.2-1.3,3.7-2.5c0.2-0.4,0.3-0.9,0.3-1.4v-9.4h2.8V-362z"/>
		<path fill="#414042" d="M617.6-368.4c0-1.8,0-3.4-0.1-4.8h2.4l0.1,3h0.1c0.7-2.1,2.4-3.4,4.2-3.4c0.3,0,0.5,0,0.8,0.1v2.6
			c-0.3-0.1-0.6-0.1-1-0.1c-2,0-3.4,1.5-3.7,3.6c-0.1,0.4-0.1,0.8-0.1,1.3v8.2h-2.8V-368.4z"/>
		<path fill="#414042" d="M634.6-357.8c0.1-1,0.1-2.6,0.1-4v-18.5h2.8v9.6h0.1c1-1.7,2.8-2.8,5.2-2.8c3.8,0,6.5,3.2,6.5,7.8
			c0,5.5-3.5,8.2-6.9,8.2c-2.2,0-4-0.9-5.1-2.9h-0.1l-0.1,2.5H634.6z M637.4-364c0,0.3,0.1,0.7,0.1,1c0.5,1.9,2.2,3.3,4.2,3.3
			c2.9,0,4.7-2.4,4.7-5.9c0-3.1-1.6-5.7-4.6-5.7c-1.9,0-3.7,1.3-4.2,3.4c-0.1,0.3-0.2,0.7-0.2,1.1V-364z"/>
		<path fill="#414042" d="M666.6-365.6c0,5.7-3.9,8.1-7.6,8.1c-4.2,0-7.4-3-7.4-7.9c0-5.1,3.4-8.1,7.6-8.1
			C663.6-373.5,666.6-370.3,666.6-365.6z M654.4-365.5c0,3.4,1.9,5.9,4.7,5.9c2.7,0,4.7-2.5,4.7-6c0-2.6-1.3-5.9-4.6-5.9
			S654.4-368.4,654.4-365.5z"/>
		<path fill="#414042" d="M683.4-380.3v18.5c0,1.4,0,2.9,0.1,4H681l-0.1-2.7h-0.1c-0.9,1.7-2.7,3-5.2,3c-3.7,0-6.6-3.1-6.6-7.8
			c0-5.1,3.1-8.2,6.9-8.2c2.3,0,3.9,1.1,4.6,2.3h0.1v-9.2H683.4z M680.6-366.9c0-0.3,0-0.8-0.1-1.2c-0.4-1.8-1.9-3.2-4-3.2
			c-2.9,0-4.6,2.5-4.6,5.9c0,3.1,1.5,5.7,4.5,5.7c1.9,0,3.6-1.2,4.1-3.3c0.1-0.4,0.1-0.8,0.1-1.2V-366.9z"/>
		<path fill="#414042" d="M689-373.2l3.4,9.1c0.3,1,0.7,2.2,1,3.1h0.1c0.3-0.9,0.6-2.1,1-3.2l3-9h2.9l-4.2,10.9
			c-2,5.3-3.4,8-5.3,9.6c-1.4,1.2-2.7,1.7-3.4,1.8l-0.7-2.3c0.7-0.2,1.6-0.7,2.4-1.4c0.8-0.6,1.7-1.7,2.3-3.1
			c0.1-0.3,0.2-0.5,0.2-0.7s-0.1-0.4-0.2-0.7l-5.7-14.1H689z"/>
	</g>
</g>
<path fill="#414042" d="M86.3-179.2v17.5c0,5.2,2,7.9,5.5,7.9c3.6,0,5.6-2.5,5.6-7.9v-17.5h6.8v17c0,9.4-4.7,13.8-12.6,13.8
	c-7.6,0-12.1-4.2-12.1-13.9v-16.9H86.3z"/>
<path fill="#414042" d="M110.1-178.8c1.8-0.4,5.4-0.6,8.9-0.6c4.2,0,6.7,0.4,9,1.7c2.1,1.1,3.6,3.2,3.6,5.9c0,2.7-1.6,5.2-5,6.5v0.1
	c3.5,0.9,6,3.6,6,7.5c0,2.7-1.3,4.9-3.1,6.4c-2.2,1.8-5.9,2.7-11.9,2.7c-3.4,0-5.9-0.2-7.4-0.4V-178.8z M116.9-167.2h2.2
	c3.6,0,5.5-1.5,5.5-3.7c0-2.3-1.8-3.5-4.9-3.5c-1.5,0-2.3,0.1-2.9,0.2V-167.2z M116.9-153.7c0.7,0.1,1.5,0.1,2.7,0.1
	c3.1,0,5.8-1.2,5.8-4.4c0-3.1-2.7-4.3-6.2-4.3h-2.3V-153.7z"/>
<path fill="#414042" d="M144.1-179.2v17.5c0,5.2,2,7.9,5.5,7.9c3.6,0,5.6-2.5,5.6-7.9v-17.5h6.8v17c0,9.4-4.7,13.8-12.6,13.8
	c-7.6,0-12.1-4.2-12.1-13.9v-16.9H144.1z"/>
<path fill="#414042" d="M168-178.8c2.5-0.4,5.8-0.6,9.3-0.6c5.8,0,9.5,1,12.4,3.2c3.1,2.3,5.1,6.1,5.1,11.4c0,5.8-2.1,9.8-5,12.3
	c-3.2,2.7-8.1,3.9-14,3.9c-3.6,0-6.1-0.2-7.8-0.4V-178.8z M174.8-154c0.6,0.1,1.5,0.1,2.4,0.1c6.2,0,10.3-3.4,10.3-10.6
	c0-6.3-3.6-9.6-9.5-9.6c-1.5,0-2.5,0.1-3.1,0.3V-154z"/>
<path fill="#414042" d="M14.1-131.1c3.7-0.7,11.1-1.3,18.1-1.3c8.5,0,13.8,0.8,18.3,3.5c4.3,2.3,7.4,6.5,7.4,12.1
	c0,5.5-3.2,10.7-10.2,13.2v0.2c7.1,1.9,12.3,7.3,12.3,15.3c0,5.6-2.6,10-6.4,13.1c-4.5,3.6-12,5.6-24.4,5.6c-6.9,0-12-0.5-15.2-0.9
	V-131.1z M28-107.3h4.6c7.4,0,11.3-3,11.3-7.6c0-4.7-3.6-7.2-9.9-7.2c-3,0-4.8,0.2-6,0.4V-107.3z M28-79.9c1.4,0.2,3,0.2,5.4,0.2
	c6.3,0,11.9-2.4,11.9-8.9c0-6.3-5.6-8.7-12.6-8.7H28V-79.9z"/>
<path fill="#414042" d="M83.7-85.8l-4.4,15.9H64.8l18.9-62h18.4l19.2,62h-15.1l-4.8-15.9H83.7z M99.4-96.3l-3.9-13.1
	c-1.1-3.7-2.2-8.3-3.1-11.9h-0.2c-0.9,3.7-1.8,8.4-2.8,11.9l-3.7,13.1H99.4z"/>
<path fill="#414042" d="M129.6-131.9h14.1v50.2h24.6v11.8h-38.7V-131.9z"/>
<path fill="#414042" d="M190.6-131.9v62h-14.1v-62H190.6z"/>
<path fill="#414042" d="M278.1-156.4c1.9,1,4.9,2,8,2c3.3,0,5-1.4,5-3.4c0-2-1.5-3.1-5.3-4.5c-5.3-1.8-8.7-4.8-8.7-9.4
	c0-5.4,4.5-9.6,12-9.6c3.6,0,6.2,0.8,8.1,1.6l-1.6,5.8c-1.3-0.6-3.5-1.5-6.6-1.5c-3.1,0-4.6,1.4-4.6,3.1c0,2,1.8,2.9,5.9,4.5
	c5.6,2.1,8.2,5,8.2,9.5c0,5.3-4.1,9.8-12.8,9.8c-3.6,0-7.2-0.9-9-1.9L278.1-156.4z"/>
<path fill="#414042" d="M310.7-157.2l-2.3,8.1H301l9.7-31.7h9.4l9.8,31.7h-7.7l-2.4-8.1H310.7z M318.7-162.6l-2-6.7
	c-0.6-1.9-1.1-4.2-1.6-6.1h-0.1c-0.5,1.9-0.9,4.3-1.5,6.1l-1.9,6.7H318.7z"/>
<path fill="#414042" d="M337-149.1v-13l-10-18.7h8.2l3.2,7.6c1,2.3,1.6,4,2.4,6.1h0.1c0.7-2,1.5-3.8,2.4-6.1l3.2-7.6h8l-10.4,18.5
	v13.2H337z"/>
<path fill="#414042" d="M365.2-180.8v18.3c0,5.5,2.1,8.2,5.7,8.2c3.8,0,5.8-2.6,5.8-8.2v-18.3h7.2v17.8c0,9.8-4.9,14.4-13.2,14.4
	c-8,0-12.7-4.4-12.7-14.5v-17.7H365.2z"/>
<path fill="#414042" d="M390.2-180.8h7.2v25.7H410v6h-19.8V-180.8z"/>
<path fill="#414042" d="M421.4-180.8v31.7h-7.2v-31.7H421.4z"/>
<path fill="#414042" d="M433.7-174.7h-8.5v-6h24.4v6h-8.7v25.7h-7.2V-174.7z"/>
<path fill="#414042" d="M457.4-157.2l-2.3,8.1h-7.4l9.7-31.7h9.4l9.8,31.7h-7.7l-2.4-8.1H457.4z M465.4-162.6l-2-6.7
	c-0.6-1.9-1.1-4.2-1.6-6.1h-0.1c-0.5,1.9-0.9,4.3-1.5,6.1l-1.9,6.7H465.4z"/>
<path fill="#414042" d="M332-92.7c-0.3-7.3-0.5-16.2-0.5-25h-0.3c-1.9,7.8-4.4,16.5-6.8,23.6L317-70.4h-10.8L299.7-94
	c-2-7.1-4.1-15.8-5.5-23.8H294c-0.4,8.2-0.6,17.6-1.1,25.2l-1.1,23.1h-12.7l3.9-60.9h18.4l6,20.3c1.9,7.1,3.8,14.6,5.2,21.8h0.3
	c1.7-7.1,3.8-15.1,5.8-21.9l6.5-20.2h18l3.3,60.9h-13.5L332-92.7z"/>
<path fill="#414042" d="M393.2-95.2h-22.4v14.5h25v11.3h-38.9v-60.9h37.6v11.3h-23.8v12.7h22.4V-95.2z"/>
<path fill="#414042" d="M437.3-69.4l-5.5-11c-2.3-4.2-3.7-7.4-5.4-10.9h-0.2c-1.3,3.5-2.8,6.7-4.7,10.9l-5.1,11h-15.7l17.6-30.8
	l-17-30.1h15.8l5.3,11.1c1.8,3.7,3.2,6.7,4.6,10.1h0.2c1.4-3.9,2.6-6.6,4.2-10.1l5.2-11.1h15.7l-17.2,29.7l18.1,31.2H437.3z"/>
<path fill="#414042" d="M474.4-130.3v60.9h-13.8v-60.9H474.4z"/>
<path fill="#414042" d="M531.1-71.1c-2.5,1.3-8.2,2.6-15.6,2.6c-21.1,0-31.9-13.1-31.9-30.5c0-20.8,14.8-32.4,33.3-32.4
	c7.1,0,12.6,1.4,15,2.7l-2.8,10.9c-2.8-1.2-6.7-2.3-11.6-2.3c-10.9,0-19.4,6.6-19.4,20.2c0,12.2,7.2,19.9,19.5,19.9
	c4.2,0,8.8-0.9,11.5-2L531.1-71.1z"/>
<path fill="#414042" d="M593.2-100.5c0,20-12.1,32.1-29.9,32.1c-18.1,0-28.7-13.6-28.7-31c0-18.3,11.7-31.9,29.7-31.9
	C583-131.3,593.2-117.3,593.2-100.5z M549.2-99.7c0,11.9,5.6,20.3,14.8,20.3c9.3,0,14.6-8.9,14.6-20.7c0-10.9-5.2-20.3-14.7-20.3
	C554.6-120.4,549.2-111.5,549.2-99.7z"/>
<line fill="#414042" stroke="#414042" stroke-width="4.8096" stroke-miterlimit="10" x1="212.8" y1="-181" x2="212.8" y2="-67.3"/>
<line fill="#414042" stroke="#414042" stroke-width="4.8096" stroke-miterlimit="10" x1="260" y1="-181" x2="260" y2="-67.3"/>
<g>
	<path fill="#FFFFFF" d="M15.2,50L6.4,13.2h8.9l2.8,15.2c0.8,4.4,1.6,9.1,2.2,12.9h0.1c0.6-4,1.5-8.4,2.4-13L26,13.2h8.9l3,15.5
		c0.8,4.3,1.4,8.3,2,12.4h0.1c0.5-4.1,1.4-8.4,2.1-12.8l3-15.1h8.5L44,50h-9l-3.1-15.9c-0.7-3.7-1.3-7.2-1.8-11.4h-0.1
		c-0.7,4.2-1.3,7.7-2.1,11.4L24.3,50H15.2z"/>
	<path fill="#FFFFFF" d="M66.2,13.2v14.2h13.7V13.2h8.3V50h-8.3V34.6H66.2V50h-8.4V13.2H66.2z"/>
	<path fill="#FFFFFF" d="M104.1,40.6l-2.6,9.5h-8.6l11.3-36.9H115L126.5,50h-9l-2.8-9.5H104.1z M113.4,34.3l-2.3-7.8
		c-0.7-2.2-1.3-4.9-1.9-7.1h-0.1c-0.5,2.2-1.1,5-1.7,7.1l-2.2,7.8H113.4z"/>
	<path fill="#FFFFFF" d="M134,20.2h-9.9v-7h28.3v7h-10.1V50H134V20.2z"/>
	<path fill="#FFFFFF" d="M156.6,41.5c2.2,1.1,5.7,2.3,9.2,2.3c3.8,0,5.9-1.6,5.9-4c0-2.3-1.8-3.6-6.2-5.2
		c-6.1-2.1-10.1-5.5-10.1-10.9c0-6.3,5.3-11.1,14-11.1c4.2,0,7.2,0.9,9.4,1.9l-1.9,6.7c-1.5-0.7-4.1-1.7-7.7-1.7s-5.4,1.6-5.4,3.6
		c0,2.4,2.1,3.4,6.8,5.2c6.5,2.4,9.6,5.8,9.6,11c0,6.2-4.8,11.4-14.9,11.4c-4.2,0-8.4-1.1-10.5-2.2L156.6,41.5z"/>
	<path fill="#FFFFFF" d="M22.3,64.1v51.4H10.6V64.1H22.3z"/>
	<path fill="#FFFFFF" d="M32.4,115.5V64.1h13.6L56.6,83c3,5.4,6.1,11.8,8.4,17.6h0.2c-0.8-6.8-1-13.7-1-21.4v-15h10.7v51.4H62.7
		l-11-19.8c-3-5.5-6.4-12.1-8.9-18.1l-0.2,0.1c0.3,6.8,0.5,14,0.5,22.4v15.5H32.4z"/>
	<path fill="#FFFFFF" d="M122.7,114.1c-2.1,1.1-6.9,2.2-13.2,2.2c-17.8,0-26.9-11.1-26.9-25.7c0-17.5,12.5-27.3,28-27.3
		c6,0,10.6,1.2,12.7,2.3l-2.4,9.2c-2.4-1-5.6-1.9-9.8-1.9c-9.2,0-16.4,5.6-16.4,17c0,10.3,6.1,16.8,16.5,16.8c3.5,0,7.4-0.8,9.7-1.7
		L122.7,114.1z"/>
	<path fill="#FFFFFF" d="M130.3,64.1h11.7v41.6h20.4v9.8h-32.1V64.1z"/>
	<path fill="#FFFFFF" d="M178.4,64.1v29.6c0,8.8,3.4,13.3,9.3,13.3c6.1,0,9.5-4.3,9.5-13.3V64.1h11.6V93c0,15.9-8,23.4-21.4,23.4
		c-13,0-20.6-7.2-20.6-23.6V64.1H178.4z"/>
	<path fill="#FFFFFF" d="M218.8,64.8c4.3-0.7,9.8-1.1,15.7-1.1c9.8,0,16.1,1.8,21,5.5c5.3,4,8.7,10.3,8.7,19.4
		c0,9.8-3.6,16.6-8.5,20.8c-5.4,4.5-13.6,6.6-23.7,6.6c-6,0-10.3-0.4-13.2-0.8V64.8z M230.5,106.7c1,0.2,2.6,0.2,4,0.2
		c10.5,0.1,17.4-5.7,17.4-18c0.1-10.7-6.2-16.3-16.2-16.3c-2.6,0-4.3,0.2-5.3,0.5V106.7z"/>
	<path fill="#FFFFFF" d="M302.4,93.8h-18.9V106h21.1v9.5h-32.8V64.1h31.7v9.5h-20v10.7h18.9V93.8z"/>
	<path fill="#FFFFFF" d="M312.6,64.8c4.3-0.7,9.8-1.1,15.7-1.1c9.8,0,16.1,1.8,21,5.5c5.3,4,8.7,10.3,8.7,19.4
		c0,9.8-3.6,16.6-8.5,20.8c-5.4,4.5-13.6,6.6-23.7,6.6c-6,0-10.3-0.4-13.2-0.8V64.8z M324.2,106.7c1,0.2,2.6,0.2,4,0.2
		c10.5,0.1,17.4-5.7,17.4-18c0.1-10.7-6.2-16.3-16.2-16.3c-2.6,0-4.3,0.2-5.3,0.5V106.7z"/>
</g>
</svg>
