<?xml version="1.0" encoding="utf-8"?>
<!-- Generator: Adobe Illustrator 18.0.0, SVG Export Plug-In . SVG Version: 6.00 Build 0)  -->
<!DOCTYPE svg PUBLIC "-//W3C//DTD SVG 1.1//EN" "http://www.w3.org/Graphics/SVG/1.1/DTD/svg11.dtd">
<svg version="1.1" id="Layer_1" xmlns="http://www.w3.org/2000/svg" xmlns:xlink="http://www.w3.org/1999/xlink" x="0px" y="0px"
	 viewBox="0 0 450 90" enable-background="new 0 0 450 90" xml:space="preserve">
<g>
	<g>
		<path fill="#414042" d="M30.3,72.4V48.6L11.8,14.1h15.1l6,14c1.8,4.2,3,7.4,4.5,11.2h0.2c1.3-3.6,2.7-7,4.4-11.2l5.9-14h14.8
			l-19.2,34v24.3H30.3z"/>
		<path fill="#414042" d="M118.3,42.7c0,19.1-11.6,30.7-28.6,30.7c-17.3,0-27.4-13.1-27.4-29.7c0-17.5,11.2-30.5,28.4-30.5
			C108.5,13.2,118.3,26.6,118.3,42.7z M76.1,43.5c0,11.4,5.4,19.5,14.2,19.5c8.9,0,14-8.5,14-19.8c0-10.5-5-19.5-14.1-19.5
			C81.3,23.6,76.1,32.1,76.1,43.5z"/>
		<path fill="#414042" d="M175.6,69.8c-4.1,1.4-11.8,3.3-19.5,3.3c-10.6,0-18.3-2.7-23.7-7.9c-5.4-5-8.3-12.6-8.2-21.2
			c0.1-19.4,14.2-30.5,33.3-30.5c7.5,0,13.3,1.5,16.2,2.9L171,26.9c-3.2-1.4-7.2-2.5-13.6-2.5c-11,0-19.3,6.2-19.3,18.9
			c0,12,7.5,19.1,18.3,19.1c3,0,5.5-0.3,6.5-0.9V49.3h-9V39h21.7V69.8z"/>
		<path fill="#414042" d="M199.5,57.5l-4.2,15h-13.7l17.8-58.3h17.3l18.1,58.3h-14.2l-4.5-15H199.5z M214.3,47.6l-3.6-12.4
			c-1-3.5-2.1-7.8-2.9-11.2h-0.2c-0.9,3.5-1.7,7.9-2.7,11.2l-3.5,12.4H214.3z"/>
	</g>
	<line fill="#414042" stroke="#414042" stroke-width="3.6565" stroke-miterlimit="10" x1="254.1" y1="11" x2="254.1" y2="76.7"/>
	<g>
		<path fill="#414042" d="M276.3,19.5c1.4-0.3,3.4-0.4,5.3-0.4c2.9,0,4.8,0.5,6.2,1.7c1.1,1,1.7,2.4,1.7,4.1c0,2.8-1.8,4.7-4,5.5
			v0.1c1.6,0.6,2.6,2.1,3.1,4.3c0.7,3,1.2,5,1.6,5.9h-2.9c-0.3-0.6-0.8-2.4-1.4-5.1c-0.6-2.9-1.8-4.1-4.3-4.2h-2.6v9.3h-2.8V19.5z
			 M279.1,29.2h2.8c2.9,0,4.8-1.6,4.8-4.1c0-2.8-2-4-4.9-4c-1.3,0-2.3,0.1-2.7,0.3V29.2z"/>
		<path fill="#414042" d="M295,33.4c0.1,3.8,2.5,5.3,5.3,5.3c2,0,3.2-0.3,4.2-0.8l0.5,2c-1,0.4-2.7,1-5.1,1c-4.7,0-7.5-3.1-7.5-7.7
			s2.7-8.3,7.2-8.3c5,0,6.3,4.4,6.3,7.2c0,0.6-0.1,1-0.1,1.3H295z M303.2,31.4c0-1.8-0.7-4.5-3.9-4.5c-2.8,0-4.1,2.6-4.3,4.5H303.2z
			"/>
		<path fill="#414042" d="M309.6,40.5V27.3h-2.2v-2.1h2.2v-0.7c0-2.2,0.5-4.1,1.8-5.4c1-1,2.4-1.4,3.7-1.4c1,0,1.8,0.2,2.4,0.4
			l-0.4,2.2c-0.4-0.2-1-0.3-1.8-0.3c-2.4,0-3,2.1-3,4.4v0.8h3.7v2.1h-3.7v13.2H309.6z"/>
		<path fill="#414042" d="M318.6,30c0-1.8,0-3.4-0.1-4.8h2.4l0.1,3h0.1c0.7-2.1,2.4-3.4,4.2-3.4c0.3,0,0.5,0,0.8,0.1v2.6
			c-0.3-0.1-0.6-0.1-1-0.1c-2,0-3.4,1.5-3.7,3.6c-0.1,0.4-0.1,0.8-0.1,1.3v8.2h-2.8V30z"/>
		<path fill="#414042" d="M330.2,33.4c0.1,3.8,2.5,5.3,5.3,5.3c2,0,3.2-0.3,4.2-0.8l0.5,2c-1,0.4-2.7,1-5.1,1
			c-4.7,0-7.5-3.1-7.5-7.7s2.7-8.3,7.2-8.3c5,0,6.3,4.4,6.3,7.2c0,0.6-0.1,1-0.1,1.3H330.2z M338.3,31.4c0-1.8-0.7-4.5-3.9-4.5
			c-2.8,0-4.1,2.6-4.3,4.5H338.3z"/>
		<path fill="#414042" d="M344.1,37.7c0.8,0.5,2.3,1.1,3.7,1.1c2,0,3-1,3-2.3c0-1.3-0.8-2.1-2.9-2.8c-2.8-1-4.1-2.5-4.1-4.3
			c0-2.5,2-4.5,5.3-4.5c1.6,0,2.9,0.4,3.8,1l-0.7,2c-0.6-0.4-1.7-0.9-3.1-0.9c-1.6,0-2.6,1-2.6,2.1c0,1.3,0.9,1.8,2.9,2.6
			c2.7,1,4,2.3,4,4.6c0,2.7-2.1,4.6-5.7,4.6c-1.7,0-3.2-0.4-4.3-1L344.1,37.7z"/>
		<path fill="#414042" d="M357,18h2.8v9.6h0.1c0.4-0.8,1.1-1.5,2-2c0.8-0.5,1.8-0.8,2.9-0.8c2.1,0,5.4,1.3,5.4,6.6v9.1h-2.8v-8.8
			c0-2.5-0.9-4.6-3.5-4.6c-1.8,0-3.2,1.3-3.7,2.8c-0.2,0.4-0.2,0.8-0.2,1.3v9.3H357V18z"/>
		<path fill="#414042" d="M277.3,53.2l3.4,9.1c0.3,1,0.7,2.2,1,3.1h0.1c0.3-0.9,0.6-2.1,1-3.2l3-9h2.9l-4.2,10.9
			c-2,5.3-3.4,8-5.3,9.6c-1.4,1.2-2.7,1.7-3.4,1.8l-0.7-2.3c0.7-0.2,1.6-0.7,2.4-1.4c0.8-0.6,1.7-1.7,2.3-3.1
			c0.1-0.3,0.2-0.5,0.2-0.7c0-0.2-0.1-0.4-0.2-0.7l-5.7-14.1H277.3z"/>
		<path fill="#414042" d="M304.7,60.8c0,5.7-3.9,8.1-7.6,8.1c-4.2,0-7.4-3-7.4-7.9c0-5.1,3.4-8.1,7.6-8.1
			C301.8,52.9,304.7,56.1,304.7,60.8z M292.6,60.9c0,3.4,1.9,5.9,4.7,5.9c2.7,0,4.7-2.5,4.7-6c0-2.6-1.3-5.9-4.6-5.9
			S292.6,58,292.6,60.9z"/>
		<path fill="#414042" d="M321.1,64.4c0,1.6,0,3,0.1,4.2h-2.5l-0.2-2.5h-0.1c-0.7,1.2-2.3,2.9-5.1,2.9c-2.4,0-5.3-1.3-5.3-6.7v-9
			h2.8v8.5c0,2.9,0.9,4.9,3.4,4.9c1.9,0,3.2-1.3,3.7-2.5c0.2-0.4,0.3-0.9,0.3-1.4v-9.4h2.8V64.4z"/>
		<path fill="#414042" d="M325.7,58c0-1.8,0-3.4-0.1-4.8h2.4l0.1,3h0.1c0.7-2.1,2.4-3.4,4.2-3.4c0.3,0,0.5,0,0.8,0.1v2.6
			c-0.3-0.1-0.6-0.1-1-0.1c-2,0-3.4,1.5-3.7,3.6c-0.1,0.4-0.1,0.8-0.1,1.3v8.2h-2.8V58z"/>
		<path fill="#414042" d="M342.8,57.4c0-1.6,0-2.9-0.1-4.2h2.4l0.1,2.5h0.1c0.9-1.5,2.3-2.8,4.8-2.8c2.1,0,3.7,1.3,4.3,3.1h0.1
			c0.5-0.9,1.1-1.5,1.7-2c0.9-0.7,1.9-1.1,3.4-1.1c2,0,5,1.3,5,6.7v9H362v-8.7c0-2.9-1.1-4.7-3.3-4.7c-1.6,0-2.8,1.2-3.3,2.5
			c-0.1,0.4-0.2,0.9-0.2,1.4v9.5h-2.7v-9.2c0-2.4-1.1-4.2-3.2-4.2c-1.7,0-3,1.4-3.5,2.8c-0.2,0.4-0.2,0.9-0.2,1.4v9.3h-2.7V57.4z"/>
		<path fill="#414042" d="M372.3,48.9c0,1-0.7,1.7-1.8,1.7c-1,0-1.7-0.8-1.7-1.7c0-1,0.7-1.7,1.7-1.7
			C371.7,47.2,372.3,47.9,372.3,48.9z M369.2,68.6V53.2h2.8v15.3H369.2z"/>
		<path fill="#414042" d="M376.6,57.4c0-1.6,0-2.9-0.1-4.2h2.5l0.2,2.5h0.1c0.8-1.5,2.5-2.9,5.1-2.9c2.1,0,5.4,1.3,5.4,6.5v9.2h-2.8
			v-8.8c0-2.5-0.9-4.5-3.5-4.5c-1.8,0-3.3,1.3-3.7,2.9c-0.1,0.3-0.2,0.8-0.2,1.3v9.2h-2.8V57.4z"/>
		<path fill="#414042" d="M407.5,46.1v18.5c0,1.4,0,2.9,0.1,4h-2.5l-0.1-2.7h-0.1c-0.9,1.7-2.7,3-5.2,3c-3.7,0-6.6-3.1-6.6-7.8
			c0-5.1,3.1-8.2,6.9-8.2c2.3,0,3.9,1.1,4.6,2.3h0.1v-9.2H407.5z M404.7,59.5c0-0.3,0-0.8-0.1-1.2c-0.4-1.8-1.9-3.2-4-3.2
			c-2.9,0-4.6,2.5-4.6,5.9c0,3.1,1.5,5.7,4.5,5.7c1.9,0,3.6-1.2,4.1-3.3c0.1-0.4,0.1-0.8,0.1-1.2V59.5z"/>
	</g>
</g>
</svg>
