<?xml version="1.0" encoding="utf-8"?>
<!-- Generator: Adobe Illustrator 18.0.0, SVG Export Plug-In . SVG Version: 6.00 Build 0)  -->
<!DOCTYPE svg PUBLIC "-//W3C//DTD SVG 1.1//EN" "http://www.w3.org/Graphics/SVG/1.1/DTD/svg11.dtd">
<svg version="1.1" id="Layer_1" xmlns="http://www.w3.org/2000/svg" xmlns:xlink="http://www.w3.org/1999/xlink" x="0px" y="0px"
	 viewBox="0 0 3401.6 329.6" enable-background="new 0 0 3401.6 329.6" xml:space="preserve">
<g>
	<polygon fill="#404045" stroke="#404045" stroke-width="3" stroke-miterlimit="10" points="512.6,45.2 392,45.2 392,58.7 
		445.5,58.7 445.5,255.6 459,255.6 459,58.7 512.6,58.7 	"/>
	<polygon fill="#404045" stroke="#404045" stroke-width="3" stroke-miterlimit="10" points="662.8,44.7 662.8,145.1 560,145.1 
		560,44.7 546.5,44.7 546.5,255.6 560,255.6 560,158.6 662.8,158.6 662.8,255.6 676.3,255.6 676.3,44.7 	"/>
	<rect x="949.5" y="44.9" fill="#404045" stroke="#404045" stroke-width="3" stroke-miterlimit="10" width="13.5" height="210.9"/>
	<path fill="#404045" stroke="#404045" stroke-width="3" stroke-miterlimit="10" d="M1267.1,134.6l0.2-0.7
		c-34.9-10.5-52.6-29.6-47.3-50.9c2.8-11.1,16.8-20.6,35-23.7c18.4-3.1,44.5,0.2,57.5,20l11.3-7.4c-16.6-25.2-48.6-29.8-71-25.9
		c-24.1,4.1-41.7,17-45.8,33.7c-2.6,10.6-6.5,45.9,51,65.4l-0.1,0.3c46.4,18.4,51.6,46.6,47.8,67c-3,15.6-17.4,27.5-36.7,30.2
		c-18.3,2.5-44.2-3.8-57.2-29.9l-12.1,6c11.8,23.7,35.1,37.9,61.1,37.9c3.3,0,6.6-0.2,10-0.7c25.2-3.5,44.1-19.6,48.1-41
		C1322.6,194.6,1320.7,157.7,1267.1,134.6z"/>
	<polygon fill="#404045" stroke="#404045" stroke-width="3" stroke-miterlimit="10" points="1465.3,44.7 1344.6,44.7 1344.6,58.2 
		1398.2,58.2 1398.2,255.6 1411.7,255.6 1411.7,58.2 1465.3,58.2 	"/>
	<rect x="1496.5" y="44.9" fill="#404045" stroke="#404045" stroke-width="3" stroke-miterlimit="10" width="13.5" height="210.7"/>
	<polygon fill="#404045" stroke="#404045" stroke-width="3" stroke-miterlimit="10" points="1670.7,44.7 1550.1,44.7 1550.1,58.2 
		1603.7,58.2 1603.7,255.6 1617.2,255.6 1617.2,58.2 1670.7,58.2 	"/>
	<path fill="#404045" stroke="#404045" stroke-width="3" stroke-miterlimit="10" d="M1819.7,44.9v133.2c0,36.5-9.7,57.2-28.9,61.3
		c-23.3,5-41.1,2.8-53-6.8c-12.8-10.3-19.3-29.5-19.3-57.1V44.9H1705v132.2h0c0.3,31.1,8.4,53.3,24.3,66.1
		c10.2,8.2,23.4,12.4,39.3,12.4c7.7,0,16-1,25-2.9c25.5-5.5,38.8-29.4,39.5-71h0V44.9H1819.7z"/>
	<polygon fill="#404045" stroke="#404045" stroke-width="3" stroke-miterlimit="10" points="1986.5,44.7 1865.8,44.7 1865.8,58.2 
		1919.4,58.2 1919.4,255.6 1932.9,255.6 1932.9,58.2 1986.5,58.2 	"/>
	<polygon fill="#404045" stroke="#404045" stroke-width="3" stroke-miterlimit="10" points="827.4,58.2 827.4,44.7 726.9,44.7 
		726.9,44.7 713.4,44.7 713.4,255.6 722.6,255.6 722.6,255.8 826.1,255.8 826.1,242.3 726.9,242.3 726.9,170.9 806.3,170.9 
		806.3,157.4 726.9,157.4 726.9,145.6 806.3,145.6 806.3,132.1 726.9,132.1 726.9,58.2 	"/>
	<polygon fill="#404045" stroke="#404045" stroke-width="3" stroke-miterlimit="10" points="1153,44.9 1153,231.6 1024.7,44.9 
		1024.3,45.2 1024.3,44.9 1010.8,44.9 1010.8,255.9 1024.3,255.9 1024.3,68.1 1036.3,85.6 1036.3,255.9 1049.8,255.9 1049.8,105.2 
		1153,255.4 1153,255.9 1166.5,255.9 1166.5,44.9 	"/>
	<polygon fill="#404045" stroke="#404045" stroke-width="3" stroke-miterlimit="10" points="2129.3,58.2 2129.3,44.7 2028.9,44.7 
		2028.9,44.7 2015.4,44.7 2015.4,255.6 2024.5,255.6 2024.5,255.8 2128.1,255.8 2128.1,242.3 2028.9,242.3 2028.9,170.9 
		2108.3,170.9 2108.3,157.4 2028.9,157.4 2028.9,145.6 2108.3,145.6 2108.3,132.1 2028.9,132.1 2028.9,58.2 	"/>
</g>
<g>
	<path fill="#404045" stroke="#404045" stroke-width="3" stroke-miterlimit="10" d="M2340.5,256.4c-28.4,0-54-11.6-72.2-32.7
		c-16.3-18.9-25.7-44.4-25.7-69.9l0.1-1.2c-1.6-54.4,33-97.1,86.2-106.3c5.9-1,12-1.5,17.9-1.5c46.9,0,86.8,32.1,94.9,76.3
		c7.4,33.9,1.6,67.8-16.2,93.2c-15.9,22.8-39.9,37-69.5,41C2350.8,256,2345.5,256.4,2340.5,256.4z M2256,153.9
		c0,22.2,8.2,44.4,22.4,60.9c11,12.8,30.7,28,62,28c4.5,0,9.1-0.3,13.7-1c25.8-3.5,46.6-15.8,60.3-35.4
		c14.9-21.3,20.2-49.7,14.9-78.5l-0.2,0l-0.7-4.4c-6.8-37.8-41.1-65.4-81.7-65.4c-5.2,0-10.4,0.5-15.6,1.3
		c-47.1,8.1-76.6,44.6-75,92.9l0,0.3L2256,153.9z"/>
	<path fill="#404045" stroke="#404045" stroke-width="3" stroke-miterlimit="10" d="M2761.7,257.7c-22.3,0-42.5-7.4-59-21.8
		c-22.3-19.4-35.7-49.7-35.7-81.2h0c-0.9-54.6,33.2-98.8,83.5-107.8c26.3-4.7,51.9,1.4,72.1,17.1l-8.3,10.7
		c-17.2-13.3-39-18.5-61.4-14.4c-44.1,7.9-73.8,47.4-72.3,96.1h0c0.4,27,11.9,52.9,31,69.5c17.2,14.9,39.1,21,63.4,17.5
		c17.5-2.5,32.4-9.3,44.4-20.1l9.1,10c-14,12.7-31.3,20.6-51.6,23.5C2771.6,257.4,2766.6,257.7,2761.7,257.7z"/>
	<path fill="#404045" stroke="#404045" stroke-width="3" stroke-miterlimit="10" d="M3144.6,44.8v-0.7h-62.8v213.3h13.5V57.6h15.7
		v199.8h13.5V57.6h11.4c54.7,2.8,97.5,41.4,97.5,87.8c0,25.1-10.4,49.9-28.7,68c-14,14-39.2,30.6-79.4,30.6c-0.2,0-0.4,0-0.5,0
		l0,13.5c0.2,0,0.4,0,0.6,0c44.8,0,73.1-18.8,88.9-34.6c20.7-20.7,32.6-48.9,32.6-77.6C3247,94.1,3202.7,51.2,3144.6,44.8z"/>
	<polygon fill="#404045" stroke="#404045" stroke-width="3" stroke-miterlimit="10" points="3383.1,60 3383.1,46.5 3282.6,46.5 
		3282.6,46.4 3269.1,46.4 3269.1,257.4 3278.2,257.4 3278.2,257.5 3381.8,257.5 3381.8,244 3282.6,244 3282.6,172.7 3362,172.7 
		3362,159.2 3282.6,159.2 3282.6,147.4 3362,147.4 3362,133.9 3282.6,133.9 3282.6,60 	"/>
	<polygon fill="#404045" stroke="#404045" stroke-width="3" stroke-miterlimit="10" points="2584.3,61.1 2584.3,47.6 2480.2,47.6 
		2480.2,47.5 2466.7,47.5 2466.7,258.5 2480.2,258.5 2480.2,173.8 2559.6,173.8 2559.6,160.3 2480.2,160.3 2480.2,148.5 
		2559.6,148.5 2559.6,135 2480.2,135 2480.2,61.1 	"/>
	<path fill="#404045" stroke="#404045" stroke-width="3" stroke-miterlimit="10" d="M2935.7,254.4c-28.4,0-54-11.6-72.2-32.7
		c-16.3-18.9-25.7-44.4-25.7-69.9l0.1-1.2c-1.6-54.4,33-97.1,86.2-106.3c5.9-1,12-1.5,17.9-1.5c46.9,0,86.8,32.1,94.9,76.3
		c7.4,33.9,1.6,67.8-16.2,93.2c-15.9,22.8-39.9,37-69.5,41C2946,254,2940.8,254.4,2935.7,254.4z M2851.3,151.9
		c0,22.2,8.2,44.4,22.4,60.9c11,12.8,30.7,28,62,28c4.5,0,9.1-0.3,13.7-1c25.8-3.5,46.6-15.8,60.3-35.4
		c14.9-21.3,20.2-49.7,14.9-78.5l-0.2,0l-0.7-4.4c-6.8-37.8-41.1-65.4-81.7-65.4c-5.2,0-10.4,0.5-15.6,1.3
		c-47.1,8.1-76.6,44.6-75,92.9l0,0.3L2851.3,151.9z"/>
	
		<rect x="3118.1" y="243" transform="matrix(4.876551e-03 1 -1 4.876551e-03 3360.3633 -2875.1912)" fill="#404045" stroke="#404045" stroke-width="3" stroke-miterlimit="10" width="13.5" height="15.5"/>
</g>
<path fill="#404045" stroke="#404045" stroke-width="8" stroke-miterlimit="10" d="M341.7,150.7c-20-34.6-40-69.2-59.9-103.8
	c-1.4-2.4-3-4.5-5.8-5.2c-41.6,0-83.2,0-124.8,0c-2.5,0.8-4.2,2.4-5.5,4.7c-12.6,22-25.3,43.9-38,65.8
	c-7.4,12.7-14.7,25.5-22.1,38.2c-1.5,2.7-1.6,5.3,0,8c0.6,1.1,1.3,2.2,1.9,3.2c19.5,33.9,39.1,67.7,58.6,101.6c1.6,2.7,3.9,4,7,4
	c40.2,0,80.5,0,120.7,0c3.4,0,5.7-1.3,7.4-4.2c5.3-9.3,10.7-18.6,16.1-27.8c14.8-25.6,29.6-51.3,44.4-76.9
	C343.1,155.8,343.1,153.2,341.7,150.7z M93.2,147.1c19-32.9,38-65.9,57-98.8c0.7-1.2,1.5-1.7,2.9-1.7c40.2,0,80.4,0,120.7,0
	c0.5,0,1,0.1,1.7,0.1C244.2,100,213,153.1,181.7,206.3c-30.7-17.7-61.3-35.4-92-53.1C90.9,151.1,92.1,149.1,93.2,147.1z M183.4,213
	c8.2,4.7,16.3,9.4,24.5,14.1c-16.4,9.4-32.7,18.7-49,28c-0.1-0.1-0.1-0.1-0.2-0.2C166.9,241,175.1,227.1,183.4,213z M150,260.1
	c-19.2-33.2-38.2-66.1-57.2-99.1c0.1-0.1,0.1-0.1,0.2-0.2c28.7,16.6,57.4,33.1,86.2,49.8C169.4,227.1,159.8,243.5,150,260.1z
	 M156.5,262.3c0.6-0.4,0.9-0.6,1.2-0.8c18-10.3,36.1-20.6,54.1-30.9c0.7-0.4,1.2-0.5,2,0c17.9,10.4,35.8,20.7,53.7,31
	c0.3,0.2,0.6,0.4,1.1,0.7C231.1,262.3,194,262.3,156.5,262.3z M276.5,261.1c-19.6-11.3-39.1-22.6-58.7-33.9
	c38.9-22.2,77.6-44.3,116.4-66.5c0.1,0.1,0.1,0.1,0.2,0.2C315.1,194.3,295.9,227.6,276.5,261.1z M336.4,153.8
	c-40.8,23.3-81.6,46.6-122.4,70c-0.8,0.4-1.3,0.4-2.1,0c-8.3-4.8-16.6-9.6-25-14.5c-0.3-0.2-0.5-0.3-0.9-0.6
	c30.9-52.5,61.7-104.9,92.6-157.4c19.7,34,39.2,67.9,58.8,101.8C337,153.4,336.7,153.6,336.4,153.8z"/>
</svg>
