<?xml version="1.0" encoding="utf-8"?>
<!-- Generator: Adobe Illustrator 18.0.0, SVG Export Plug-In . SVG Version: 6.00 Build 0)  -->
<!DOCTYPE svg PUBLIC "-//W3C//DTD SVG 1.1//EN" "http://www.w3.org/Graphics/SVG/1.1/DTD/svg11.dtd">
<svg version="1.1" id="Layer_1" xmlns="http://www.w3.org/2000/svg" xmlns:xlink="http://www.w3.org/1999/xlink" x="0px" y="0px"
	 viewBox="0 0 116 600" enable-background="new 0 0 116 600" xml:space="preserve">
<path fill="#414042" d="M30.9,98.9V5h13.8v80.1h40.4v13.8H30.9z"/>
<path fill="#414042" d="M86.9,127v13H42.9v28.4h35.5v13H42.9v26.3h43.9V221H29.1v-94H86.9z"/>
<path fill="#414042" d="M85.2,337l-5.4-12.8H36.1L30.7,337H16.7L58,243l41.3,94H85.2z M42,310.4h31.8L58,273.3L42,310.4z"/>
<path fill="#414042" d="M74.2,459l-14.6-31.9c-0.8,0.1-1.7,0.1-2.5,0.1c-0.8,0-1.5,0-2.2,0H40.4V459H26.6v-94h13.7h14.6
	c1.7,0,3.7,0.1,5.9,0.2c2.2,0.1,4.5,0.5,6.8,1c2.3,0.6,4.6,1.5,6.8,2.7c2.2,1.3,4.2,3,6,5.3c1.8,2.3,3.2,5.2,4.2,8.8
	c1.1,3.6,1.6,8,1.6,13.1c0,4.1-0.3,7.7-1,10.8c-0.7,3.1-1.6,5.7-2.8,7.9c-1.2,2.2-2.6,4-4.2,5.5c-1.6,1.5-3.2,2.7-5,3.6L89.4,459
	H74.2z M49.5,413.4c2.5,0,5.2,0,7.9-0.1c2.7-0.1,5.2-0.6,7.4-1.6c2.2-1,4-2.7,5.4-5.1c1.4-2.4,2.2-5.8,2.2-10.4
	c0-4.6-0.7-8-2.2-10.4c-1.4-2.4-3.3-4.1-5.4-5.1c-2.2-1-4.6-1.6-7.3-1.7c-2.7-0.1-5.3-0.2-7.9-0.2h-9.2v34.6H49.5z"/>
<path fill="#414042" d="M79,546.4V487h13.8v94L37,523.9V581H23.2v-94L79,546.4z"/>
</svg>
