<svg id="Layer_1" data-name="Layer 1" xmlns="http://www.w3.org/2000/svg" viewBox="0 0 87.45 565.72"><defs><style>.cls-1{fill:#231f20;}</style></defs><title>Campus</title><path class="cls-1" d="M23.77,43.77c0-22.92,16.44-38.54,37.38-38.54,9.65,0,16.88,3.18,20.35,5.72a57,57,0,0,1-4.17,18.13,18.38,18.38,0,0,0-16.21-8.88c-11.68,0-20,9-20,21.71,0,13.79,9.92,20.75,21.2,20.75,8.63,0,16.33-3.95,19.49-7.43,0.57,4.18-.53,9.24-2,14.87C75.87,73.65,67.64,78,56.86,78,37.69,78,23.77,64.46,23.77,43.77Z" transform="translate(-9.13 -5.23)"/><path class="cls-1" d="M63.72,158.68H39.47l-5.72,16.85-16-.44,27.11-70a114,114,0,0,0,15.39-.86L88,175.09l-18.66,1.09Zm-3.49-10.85L51.93,122l-8.77,25.83H60.23Z" transform="translate(-9.13 -5.23)"/><path class="cls-1" d="M96.58,273.16A93,93,0,0,1,79,274.68l-3.78-50-17,49.25a61.61,61.61,0,0,1-12.42,1L29.48,224,24.31,274.6q-7.6-.68-15.18-0.86l9.8-69.11q9.27-.6,18.5-1.91l15.41,48.8,17.78-48.23q8.83,0.73,17.65.74l8.31,69.13h0Z" transform="translate(-9.13 -5.23)"/><path class="cls-1" d="M80.58,324.52c0,15-11.9,27-30.5,27a52.91,52.91,0,0,1-7.63-.61v21.52a84.12,84.12,0,0,1-17.32.31V304.13a107.39,107.39,0,0,1,22-2.38C68.78,301.75,80.58,309.75,80.58,324.52Zm-17.29,1.4c0-6.91-4.9-10.26-13.82-10.26a39.89,39.89,0,0,0-7.53.71v20.46a31.06,31.06,0,0,0,6.71.77C58,337.6,63.29,332.92,63.29,325.92Z" transform="translate(-9.13 -5.23)"/><path class="cls-1" d="M67.67,400.49c8.1,0,13.89-.19,16-0.34v39.21c0,20.19-11.07,32.52-30.31,32.52C33.89,471.88,22,459.56,22,439.37V400.5c8.76,0,15-.21,17.32-0.36v39.23c0,10.86,5.33,17.55,14.26,17.55s14.05-6.68,14.05-17.55v-22h0V400.49h0Z" transform="translate(-9.13 -5.23)"/><path class="cls-1" d="M31.34,567.53a37.15,37.15,0,0,1-2.25-16.76,38.07,38.07,0,0,0,19.36,5.81c7.07,0,11.6-2.6,11.6-7.2,0-4.89-5-7-12.1-9.91s-17.78-7.1-17.78-20c0-12.64,10.37-21.17,26.95-21.17a45.18,45.18,0,0,1,16.79,3.05,46,46,0,0,1-3.2,14.43,25,25,0,0,0-14.26-4.27c-5.75,0-9.61,2.35-9.61,6.09,0,4,4.65,6,11.4,8.94,7.35,3.16,18.53,7.83,18.53,21.9S66,570.95,49.17,570.95A45.51,45.51,0,0,1,31.34,567.53Z" transform="translate(-9.13 -5.23)"/></svg>