<?xml version="1.0" encoding="utf-8"?>
<!-- Generator: Adobe Illustrator 19.2.1, SVG Export Plug-In . SVG Version: 6.00 Build 0)  -->
<svg version="1.1" id="Layer_1" xmlns="http://www.w3.org/2000/svg" xmlns:xlink="http://www.w3.org/1999/xlink" x="0px" y="0px"
	 viewBox="0 0 25 150" style="enable-background:new 0 0 25 150;" xml:space="preserve">
<style type="text/css">
	.st0{fill:#1E1D1D;}
</style>
<g>
	<path class="st0" d="M18.9,24.2H6.3V4.8h12.4c0.1,1.2-0.1,2.6-0.2,3.9h-7.4v4.1h6.2c0.1,1-0.1,2.1-0.2,3.2h-6v4.3h8
		C19.2,21.5,19,22.9,18.9,24.2z"/>
	<path class="st0" d="M20.5,29.3v19.5L17.2,49L7.5,36.7v12.1C6,49,4.7,49,3.3,48.9V29.4c1.4,0,2.7,0,3.5-0.1l9.6,11.9v-7.1h0l0,0
		v-4.7C18.5,29.4,20,29.4,20.5,29.3z"/>
	<path class="st0" d="M11.4,65.8c-0.7,0-1.4-0.1-2.1-0.1v7.8c-1.7,0.2-3.2,0.2-4.8,0.1v-19c1.2-0.3,3.8-0.7,6.4-0.7
		c5.9,0,9.2,1.7,9.2,5.4c0,2.5-1.5,4.6-4.2,5.6l6.1,8.6L16,73.8L11.4,65.8z M9.1,62.5c0.6,0.1,1.2,0.2,2,0.2c2.6,0,4.2-1.1,4.2-2.8
		c0-1.7-1.5-2.3-3.8-2.3c-0.9,0-1.8,0.1-2.3,0.2V62.5z"/>
	<path class="st0" d="M2.3,89.1c0-6,4.4-10.7,10.2-10.7c5.2,0,9.1,3.8,9.1,9.4c0,6-4.4,10.8-10.3,10.8C6,98.5,2.3,94.6,2.3,89.1z
		 M16.7,88.4c0-3.1-1.7-5.9-4.8-5.9c-2.9,0-4.8,2.6-4.8,5.9c0,3.1,1.8,5.9,4.8,5.9C14.8,94.3,16.7,91.7,16.7,88.4z"/>
	<path class="st0" d="M19.1,122.8H6.7v-19.4c2.4,0,4.2-0.1,4.8-0.1v15.4h7.8C19.4,120,19.2,121.4,19.1,122.8z"/>
	<path class="st0" d="M19.1,147.4H6.7V128c2.4,0,4.2-0.1,4.8-0.1v15.4h7.8C19.4,144.6,19.2,146,19.1,147.4z"/>
</g>
</svg>
