<svg id="Layer_1" data-name="Layer 1" xmlns="http://www.w3.org/2000/svg" viewBox="0 0 46.34 351.37"><defs><style>.cls-1{fill:#231f20;}</style></defs><title>Life</title><path class="cls-1" d="M60.13,90.47H15.46v-70c8.76,0,15-.21,17.32-0.36V75.5h28C61.24,80.32,60.38,85.48,60.13,90.47Z" transform="translate(-15.02 -20.1)"/><path class="cls-1" d="M46.86,167.13v16.76a84.12,84.12,0,0,1-17.32.31V167.13l0-36.39V113.88c8.76,0,15-.21,17.32-0.36v17.22Z" transform="translate(-15.02 -20.1)"/><path class="cls-1" d="M60.33,207.43c0.42,4.81-.44,10-0.69,15H33.26v15.45h21.1c0.41,4.65-.42,9.63-0.67,14.45H33.27v25.14a84.12,84.12,0,0,1-17.32.31V207.43H60.33Z" transform="translate(-15.02 -20.1)"/><path class="cls-1" d="M60.6,371.47H15v-70H59.57c0.39,4.48-.41,9.29-0.65,13.94H32.34v14.84h22.3C55,334,54.3,338,54.1,341.82H32.34v15.46H61.26C61.66,361.84,60.84,366.74,60.6,371.47Z" transform="translate(-15.02 -20.1)"/></svg>