<?xml version="1.0" encoding="utf-8"?>
<!-- Generator: Adobe Illustrator 18.0.0, SVG Export Plug-In . SVG Version: 6.00 Build 0)  -->
<!DOCTYPE svg PUBLIC "-//W3C//DTD SVG 1.1//EN" "http://www.w3.org/Graphics/SVG/1.1/DTD/svg11.dtd">
<svg version="1.1" id="Layer_1" xmlns="http://www.w3.org/2000/svg" xmlns:xlink="http://www.w3.org/1999/xlink" x="0px" y="0px"
	 viewBox="0 0 233.5 153" enable-background="new 0 0 233.5 153" xml:space="preserve">
<path fill="#414042" d="M94.2,23.8v17.5c0,5.2,2,7.9,5.5,7.9c3.6,0,5.6-2.5,5.6-7.9V23.8h6.8v17c0,9.4-4.7,13.8-12.6,13.8
	c-7.6,0-12.1-4.2-12.1-13.9V23.8H94.2z"/>
<path fill="#414042" d="M118,24.2c1.8-0.4,5.4-0.6,8.9-0.6c4.2,0,6.7,0.4,9,1.7c2.1,1.1,3.6,3.2,3.6,5.9c0,2.7-1.6,5.2-5,6.5v0.1
	c3.5,0.9,6,3.6,6,7.5c0,2.7-1.3,4.9-3.1,6.4c-2.2,1.8-5.9,2.7-11.9,2.7c-3.4,0-5.9-0.2-7.4-0.4V24.2z M124.8,35.8h2.2
	c3.6,0,5.5-1.5,5.5-3.7c0-2.3-1.8-3.5-4.9-3.5c-1.5,0-2.3,0.1-2.9,0.2V35.8z M124.8,49.3c0.7,0.1,1.5,0.1,2.7,0.1
	c3.1,0,5.8-1.2,5.8-4.4c0-3.1-2.7-4.3-6.2-4.3h-2.3V49.3z"/>
<path fill="#414042" d="M152,23.8v17.5c0,5.2,2,7.9,5.5,7.9c3.6,0,5.6-2.5,5.6-7.9V23.8h6.8v17c0,9.4-4.7,13.8-12.6,13.8
	c-7.6,0-12.1-4.2-12.1-13.9V23.8H152z"/>
<path fill="#414042" d="M175.9,24.2c2.5-0.4,5.8-0.6,9.3-0.6c5.8,0,9.5,1,12.4,3.2c3.1,2.3,5.1,6.1,5.1,11.4c0,5.8-2.1,9.8-5,12.3
	c-3.2,2.7-8.1,3.9-14,3.9c-3.6,0-6.1-0.2-7.8-0.4V24.2z M182.7,49c0.6,0.1,1.5,0.1,2.4,0.1c6.2,0,10.3-3.4,10.3-10.6
	c0-6.3-3.6-9.6-9.5-9.6c-1.5,0-2.5,0.1-3.1,0.3V49z"/>
<path fill="#414042" d="M22,71.9c3.7-0.7,11.1-1.3,18.1-1.3c8.5,0,13.8,0.8,18.3,3.5c4.3,2.3,7.4,6.5,7.4,12.1
	c0,5.5-3.2,10.7-10.2,13.2v0.2C62.7,101.6,68,107,68,115c0,5.6-2.6,10-6.4,13.1c-4.5,3.6-12,5.6-24.4,5.6c-6.9,0-12-0.5-15.2-0.9
	V71.9z M35.9,95.7h4.6c7.4,0,11.3-3,11.3-7.6c0-4.7-3.6-7.2-9.9-7.2c-3,0-4.8,0.2-6,0.4V95.7z M35.9,123.1c1.4,0.2,3,0.2,5.4,0.2
	c6.3,0,11.9-2.4,11.9-8.9c0-6.3-5.6-8.7-12.6-8.7h-4.8V123.1z"/>
<path fill="#414042" d="M91.6,117.2l-4.4,15.9H72.6l18.9-62H110l19.2,62h-15.1l-4.8-15.9H91.6z M107.3,106.7l-3.9-13.1
	c-1.1-3.7-2.2-8.3-3.1-11.9h-0.2c-0.9,3.7-1.8,8.4-2.8,11.9l-3.7,13.1H107.3z"/>
<path fill="#414042" d="M137.4,71.1h14.1v50.2h24.6v11.8h-38.7V71.1z"/>
<path fill="#414042" d="M198.5,71.1v62h-14.1v-62H198.5z"/>
<line fill="#414042" stroke="#414042" stroke-width="4.8096" stroke-miterlimit="10" x1="220.7" y1="22" x2="220.7" y2="135.7"/>
</svg>
